<?xml version="1.0" encoding="utf-8"?>
<!-- Generator: Adobe Illustrator 17.1.0, SVG Export Plug-In . SVG Version: 6.00 Build 0)  -->
<!DOCTYPE svg PUBLIC "-//W3C//DTD SVG 1.1//EN" "http://www.w3.org/Graphics/SVG/1.1/DTD/svg11.dtd">
<svg version="1.1" xmlns="http://www.w3.org/2000/svg" xmlns:xlink="http://www.w3.org/1999/xlink" x="0px" y="0px"
	 viewBox="0 0 100 100" enable-background="new 0 0 100 100" xml:space="preserve">
<g id="Layer_7">
</g>
<g id="Layer_4">
	<g id="SMS">
		<g id="Email">
		</g>
	</g>
</g>
<g id="Send_Code">
	<path fill="#66ACB3" d="M11.287,19.243v59.011h81.144V19.243H11.287z M51.859,57.045l10.226-7.359l21.484,22.421H20.138
		l21.497-22.42L51.859,57.045z M51.859,46.442L26.022,27.849h51.675L51.859,46.442z M38.61,47.511L17.435,69.597V32.273
		L38.61,47.511z M86.284,69.606L65.11,47.51l21.174-15.237V69.606z"/>
	<path fill="#FFFFFF" d="M11.287,21.746v59.011h81.144V21.746H11.287z M51.859,59.548l10.226-7.359l21.484,22.421H20.138
		l21.497-22.42L51.859,59.548z M51.859,48.945L26.022,30.352h51.675L51.859,48.945z M38.61,50.013L17.435,72.099V34.775
		L38.61,50.013z M86.284,72.108L65.11,50.012l21.174-15.237V72.108z"/>
</g>
<g id="Record">
	<g id="Rock_crushes_Scissors">
	</g>
	<g id="Scissors_Cuts_Paper">
	</g>
	<g id="Paper_Over_Rock">
	</g>
</g>
<g id="Rock">
</g>
<g id="Paper">
</g>
<g id="Scissors">
</g>
<g id="Message">
</g>
<g id="New_Game" display="none">
	<g id="Arrow_26" display="inline">
	</g>
</g>
</svg>
