<?xml version="1.0" encoding="utf-8"?>
<!-- Generator: Adobe Illustrator 17.1.0, SVG Export Plug-In . SVG Version: 6.00 Build 0)  -->
<!DOCTYPE svg PUBLIC "-//W3C//DTD SVG 1.1//EN" "http://www.w3.org/Graphics/SVG/1.1/DTD/svg11.dtd">
<svg version="1.1" xmlns="http://www.w3.org/2000/svg" xmlns:xlink="http://www.w3.org/1999/xlink" x="0px" y="0px"
	 viewBox="0 0 100 100" enable-background="new 0 0 100 100" xml:space="preserve">
<g id="Layer_7">
</g>
<g id="Layer_4">
	<g id="SMS">
		<g id="Email">
		</g>
	</g>
</g>
<g id="Send_Code">
	<path fill="#66ACB3" d="M31.766,42.84V86h59.349V42.84H31.766z M80.34,49.132L61.443,62.736L42.542,49.132H80.34z M86.621,81.506
		H36.265V52.372l25.177,18.12l25.179-18.124V81.506z"/>
	<path fill="#66ACB3" d="M19.872,45.762V30.319c0-1.356,1.105-2.465,2.462-2.465h25.379c1.352,0,2.462,1.109,2.462,2.465v8.008
		h8.254v-8.656c0-6.78-5.546-12.325-12.32-12.325H26.934l-0.005-5.567c-0.004-2.385-1.932-4.312-4.316-4.31
		c-2.384,0-4.312,1.934-4.307,4.317l0.002,6.935c-3.971,2.051-6.708,6.193-6.708,10.949v23.033c0,6.775,1.115,17.12,2.472,22.99
		c1.214,5.268,6.709,9.66,12.725,10.507V48.23h-4.463C20.978,48.23,19.872,47.118,19.872,45.762z"/>
	<path fill="#FFFFFF" d="M31.766,45.342v43.16h59.349v-43.16H31.766z M80.34,51.634L61.443,65.238L42.542,51.634H80.34z
		 M86.621,84.008H36.265V54.874l25.177,18.12l25.179-18.124V84.008z"/>
	<path fill="#FFFFFF" d="M19.872,48.264V32.821c0-1.356,1.105-2.465,2.462-2.465h25.379c1.352,0,2.462,1.109,2.462,2.465v8.008
		h8.254v-8.656c0-6.78-5.546-12.325-12.32-12.325H26.934l-0.005-5.567c-0.004-2.385-1.932-4.312-4.316-4.31
		c-2.384,0-4.312,1.934-4.307,4.317l0.002,6.935c-3.971,2.051-6.708,6.193-6.708,10.949v23.033c0,6.775,1.115,17.12,2.472,22.99
		c1.214,5.268,6.709,9.66,12.725,10.507V50.732h-4.463C20.978,50.732,19.872,49.62,19.872,48.264z"/>
</g>
<g id="Record">
	<g id="Rock_crushes_Scissors">
	</g>
	<g id="Scissors_Cuts_Paper">
	</g>
	<g id="Paper_Over_Rock">
	</g>
</g>
<g id="Rock">
</g>
<g id="Paper">
</g>
<g id="Scissors">
</g>
<g id="Message">
</g>
<g id="New_Game" display="none">
	<g id="Arrow_26" display="inline">
	</g>
</g>
</svg>
