<?xml version="1.0" encoding="utf-8"?>
<!-- Generator: Adobe Illustrator 17.1.0, SVG Export Plug-In . SVG Version: 6.00 Build 0)  -->
<!DOCTYPE svg PUBLIC "-//W3C//DTD SVG 1.1//EN" "http://www.w3.org/Graphics/SVG/1.1/DTD/svg11.dtd">
<svg version="1.1" xmlns="http://www.w3.org/2000/svg" xmlns:xlink="http://www.w3.org/1999/xlink" x="0px" y="0px"
	 viewBox="0 0 100 100" enable-background="new 0 0 100 100" xml:space="preserve">
<filter  id="AI_GaussianBlur_4">
	<feGaussianBlur  stdDeviation="2"></feGaussianBlur>
</filter>
<g id="Layer_7">
</g>
<g id="Layer_4">
	<g id="SMS">
		<g id="Email">
		</g>
	</g>
</g>
<g id="Send_Code">
</g>
<g id="Record">
	<g id="Rock_crushes_Scissors">
	</g>
	<g id="Scissors_Cuts_Paper">
		<g>
			<g>
				<path id="shadow_7_" filter="url(#AI_GaussianBlur_4)" d="M93.43,42.004c0.946-1.522-0.35-4.182-3.706-4.799
					c-2.001-0.347-10.827-2.652-19.462-4.959c0,0-18.15-3.151-22.161-7.893c-0.045,4.46-25.407,20.377-25.407,20.377
					S2.311,59.844-2.31,60.756c0.943,4.37,21.319,11.46,21.319,11.46S44.962,85.314,51.744,85.03
					c6.782-0.285,14.55-14.052,26.058-26.483c7.305-7.89,13.59-14.59,15.383-16.225c0.146-0.213,0.246-0.411,0.309-0.595
					c-0.009,0.08-0.032,0.175-0.068,0.283c-0.018,0.032-0.042,0.066-0.066,0.099c0.022-0.03,0.044-0.061,0.063-0.092
					c-0.009,0.025-0.015,0.048-0.025,0.075C93.409,42.061,93.42,42.033,93.43,42.004z M93.521,41.668
					c0.003,0.1-0.023,0.207-0.087,0.325C93.471,41.887,93.502,41.779,93.521,41.668z"/>
			</g>
			<linearGradient id="SVGID_1_" gradientUnits="userSpaceOnUse" x1="66.5723" y1="40.3631" x2="93.0342" y2="39.0608">
				<stop  offset="0" style="stop-color:#FFFFFF"/>
				<stop  offset="1" style="stop-color:#D8D8D8"/>
			</linearGradient>
			<path fill="url(#SVGID_1_)" d="M48.579,46.255c0,0,9.755,7.245,31.088-0.267c5.5-5.656,11.036-2.911,12.829-4.546
				c1.654-2.416-2.307-2.944-6.099-1.817c0.679-2.354,2.637-3.299,2.637-3.299c-2.001-0.347-10.827-2.652-19.462-4.959
				L48.579,46.255z"/>
			<g opacity="0.7" filter="url(#AI_GaussianBlur_4)">
				<path fill="#666666" d="M89.259,37.596c0,0-1.064,2.551-2.646,3.304c3.296,0.805,6.853-1.695,6.097,0.311
					C93.021,40.383,93.147,39.509,89.259,37.596z"/>
			</g>
			
				<linearGradient id="SVGID_2_" gradientUnits="userSpaceOnUse" x1="65.8031" y1="-312.4993" x2="68.7837" y2="-317.6619" gradientTransform="matrix(0.8663 0.5374 -0.5236 0.844 -133.5737 269.2104)">
				<stop  offset="0" style="stop-color:#FFFFFF"/>
				<stop  offset="1" style="stop-color:#C4C4C4"/>
			</linearGradient>
			<path fill="url(#SVGID_2_)" d="M89.034,36.327c0,0-2.053,0.851-2.637,3.299c2.561-0.013,7.82,0.014,6.099,1.817
				C93.867,40.007,92.638,36.989,89.034,36.327z"/>
			<linearGradient id="SVGID_3_" gradientUnits="userSpaceOnUse" x1="24.1991" y1="39.2284" x2="79.7538" y2="29.0418">
				<stop  offset="0" style="stop-color:#FFFFFF"/>
				<stop  offset="1" style="stop-color:#D8D8D8"/>
			</linearGradient>
			<path fill="url(#SVGID_3_)" d="M48.579,46.255l20.994-14.887c0,0-18.15-3.151-22.161-7.893
				c-0.045,4.46-25.407,20.377-25.407,20.377L48.579,46.255z"/>
		</g>
		<g>
			<path id="shaodw_5_" filter="url(#AI_GaussianBlur_4)" d="M102.145,55.764c0.033-1.515-0.515-1.971-1.097-2.158
				c-0.315-0.101-0.639-0.124-0.886-0.192c-0.346-0.096-0.665-0.391-1.015-0.708c-0.363-0.329-0.759-0.682-1.253-0.861
				c-0.821-0.298-1.537,0.096-1.74,0.225c-0.037,0.024-0.059,0.04-0.059,0.04l-0.04-0.007l-25.154-4.34l-0.006,0.019
				c-0.079-0.015-0.132-0.026-0.148-0.029c-0.095-0.021-0.216,0.147-0.349,0.424c-0.002,0.004-0.004,0.007-0.006,0.011c0,0,0,0,0,0
				c0.002-0.004,0.004-0.007,0.006-0.011c-0.805-0.193-2.758-0.533-2.758-0.533s-0.016-0.149-0.031-0.385
				c-0.055-0.858-0.256-2.936-0.871-3.787c-0.075-0.104-0.159-0.192-0.248-0.255c-0.04-0.028-0.14-0.067-0.276-0.109
				c0.08-1.073-0.324-2.674-0.528-3.388c-0.009-0.031-0.014-0.059-0.022-0.088c-0.036-0.136-0.057-0.239-0.067-0.284
				c-0.003-0.015-0.004-0.024-0.004-0.024l2.502-1.502c-0.006,0.036-0.007,0.062-0.007,0.084c-0.003-0.006-0.009-0.013-0.011-0.019
				L65.6,39.349c0.009,0.044,0.032,0.149,0.068,0.284c0.008,0.029,0.016,0.056,0.026,0.089l2.279-1.484
				c0.199,0.141,0.383,0.244,0.525,0.284c-0.025-0.08-0.164-0.255-0.312-0.448c0.005-0.014-0.004-0.034-0.018-0.056
				c0.007,0.005,0.013,0.011,0.019,0.02c0.121,0.183,0.284,0.385,0.309,0.465c0.962-0.08,22.725-12.598,22.725-12.598
				s0.985,0.307,1.781-0.351c0.797-0.659,1.011-1.818,1.608-2.238c0.597-0.42,1.91-0.696,1.078-2.878
				c-0.374-0.981-1.57-3.628-3.643-5.786c-2.53-2.811-6.486-5.008-11.987-2.111c-2.47,1.301-3.923,2.817-4.768,4.386
				c-2.853,4.027-1.034,8.625-1.76,10.912c-0.037,0.033-0.076,0.064-0.116,0.094l-7.191,7.161l0.013,0.016l0.019,0.024
				c-0.202,0.204-0.324,0.378-0.41,0.478c0.119,0.064,0.191,0.152,0.276,0.193c-0.1-0.021-0.165-0.129-0.307-0.205
				c-0.023,0.094,0.02,0.237,0.108,0.409l-8.123,5.479c-10.146-1.743-25.529-4.118-25.529-4.118s-2.363-0.298-3.659,1.2
				c-0.332,0.384-0.484,0.686-0.527,0.924c-0.342,0.636-0.059,0.955,0.206,1.106c0.163,0.092,0.319,0.122,0.319,0.122l21.979,5.63
				L31.428,59.276c0,0-0.138,0.084-0.261,0.226c-0.003,0.003-0.005,0.007-0.008,0.01c-0.059,0.07-0.113,0.154-0.146,0.25
				c0-0.001,0.001-0.003,0.001-0.004c0.033-0.098,0.087-0.179,0.147-0.25c-0.09,0.084-1.146,1.129,0.507,2.065
				c1.724,0.976,3.849-0.097,3.849-0.097s14.633-7.903,23.556-12.948l9.842,2.521l0.322,0.086l0.183,0.049l0,0l-0.183-0.049
				c-0.083,0.261-0.127,0.446-0.101,0.492c0.008,0.014,0.053,0.042,0.129,0.084l0,0c0.216,0.117,0.686,0.337,1.305,0.615
				l8.114,3.823c0.048,0.015,0.095,0.031,0.141,0.05c2.277,0.906,1.582,6.312,5.323,9.687c1.324,1.194,3.201,2.134,5.965,2.53
				c6.155,0.881,9.143-2.517,10.582-6.015c0.09-0.218,0.171-0.436,0.249-0.654C101.921,59.234,102.124,56.725,102.145,55.764z
				 M81.666,14.057c3.324-0.661,6.835-0.553,8.969,3.719c0.859,1.72,0.659,3.227-0.06,4.518c-1.146,1.48-2.961,2.604-4.346,3.43
				c-2.614,1.558-4.805,2.262-8.146-1.225C75.501,21.624,78.484,15.153,81.666,14.057z M95.168,65.791
				c-1.073,0.434-2.316,0.636-3.677,0.665c-2.246,0.049-4.73-1.477-6.223-3.48c-1.112-1.492-1.675-3.248-1.179-4.82
				c0.049-0.116,0.099-0.23,0.148-0.341c1.976-4.407,4.276-4.48,7.262-3.89c0.984,0.194,2.163,0.442,3.293,0.844
				c0.551,0.216,1.083,0.473,1.566,0.782c1.486,0.951,2.518,2.399,2.238,4.703c-0.068,0.565-0.172,1.084-0.307,1.563
				C97.735,63.782,96.64,65.043,95.168,65.791z"/>
			<g>
				<polygon fill="none" points="66.847,42.842 66.847,42.84 66.852,42.831 66.844,42.845 				"/>
				<path fill="none" d="M60.831,46.517c0.008-0.004,0.015-0.008,0.023-0.013c0.001,0,0.001-0.001,0.002-0.001
					c2.39-1.357,4.291-2.467,5.265-3.098c0.004-0.002,0.007-0.004,0.01-0.007c0.004-0.003,0.008-0.005,0.012-0.008
					C65.172,44.021,63.25,45.143,60.831,46.517z"/>
				<path fill="none" d="M66.962,42.584c0.002-0.005,0.004-0.01,0.006-0.015c0-0.002,0.001-0.003,0.001-0.005
					C66.967,42.571,66.964,42.577,66.962,42.584z"/>
				<polygon fill="none" points="66.834,42.865 66.842,42.851 66.84,42.853 				"/>
				<path fill="none" d="M70.624,49.65c-0.013,0.033,0.111,0.111,0.099,0.142c0.011-0.028,0.021-0.057,0.035-0.092
					c0.24-0.64,0.843-2.413,0.672-2.453C71.601,47.289,70.862,49.009,70.624,49.65z"/>
				<path fill="none" d="M66.838,43.019c-0.062,0.157-0.14,0.309-0.232,0.445C66.702,43.323,66.778,43.174,66.838,43.019z"/>
				<path fill="none" d="M70.407,49.79l-0.531-0.141l-9.469-2.426c0,0-0.001,0-0.001,0l9.473,2.426l0.53,0.141l0.014,0.004
					c0.006-0.017,0.015-0.042,0.025-0.07c-0.008,0.023-0.019,0.048-0.025,0.07L70.407,49.79z"/>
				<path fill="none" d="M66.645,43.045c-0.022,0.017-0.051,0.037-0.077,0.056C66.594,43.082,66.623,43.062,66.645,43.045z"/>
				<path fill="none" d="M66.759,42.952c-0.006,0.005-0.016,0.013-0.023,0.018C66.743,42.965,66.753,42.958,66.759,42.952z"/>
				<path fill="none" d="M99.108,60.804c0.135-0.479,0.239-0.998,0.307-1.563c0.279-2.304-0.753-3.752-2.238-4.703
					c-0.484-0.31-1.016-0.566-1.566-0.782c-1.13-0.402-2.31-0.649-3.293-0.844c-2.985-0.589-5.285-0.517-7.262,3.89
					c-0.05,0.111-0.099,0.225-0.148,0.341c-0.495,1.571,0.067,3.328,1.179,4.82c1.493,2.003,3.977,3.529,6.223,3.48
					c1.361-0.029,2.604-0.231,3.677-0.665C97.46,64.03,98.554,62.769,99.108,60.804z"/>
				<path fill="none" d="M59.435,47.307c0.104-0.059,0.208-0.117,0.311-0.175c0.001-0.001,0.002-0.001,0.003-0.002
					c-0.104,0.059-0.209,0.118-0.314,0.177L59.435,47.307z"/>
				<path fill="none" d="M36.553,59.883c0,0-2.124,1.073-3.849,0.097c-0.867-0.491-0.978-0.921-0.874-1.228
					c-0.106,0.306,0.002,0.737,0.873,1.23C34.428,60.958,36.553,59.884,36.553,59.883c0,0.001,13.744-7.13,22.712-12.18
					c0.037-0.021,0.026,0.271,0.052,0.271h-0.001c-0.025,0-0.014-0.292-0.051-0.272C50.296,52.753,36.553,59.883,36.553,59.883z"/>
				<path fill="none" d="M66.484,43.162c-0.039,0.027-0.086,0.059-0.131,0.089C66.398,43.221,66.445,43.189,66.484,43.162z"/>
				<path fill="none" d="M59.839,47.078c-0.029,0.016-0.059,0.033-0.087,0.049c-0.001,0.001-0.002,0.001-0.003,0.002
					C59.779,47.113,59.81,47.095,59.839,47.078c0.338-0.19,0.667-0.377,0.988-0.559c-0.008,0.004-0.016,0.009-0.024,0.013
					C60.489,46.711,60.168,46.893,59.839,47.078z"/>
				<path fill="none" d="M67.233,34.742c-0.002,0.002-0.004,0.002-0.006,0.003c0.09,0.116,0.197,0.251,0.316,0.398
					c-0.128-0.168-0.232-0.317-0.298-0.433L67.233,34.742z"/>
				<path fill="none" d="M59.984,44.505c0.325,0.122,0.667,0.112,0.969-0.002c0.1-0.099,0.183-0.219,0.236-0.36
					c0.194-0.518-0.069-1.095-0.587-1.289c-0.518-0.194-1.095,0.069-1.289,0.587c-0.053,0.141-0.069,0.285-0.058,0.426
					C59.407,44.151,59.658,44.384,59.984,44.505z"/>
				<path fill="none" d="M91.454,16.764c-2.134-4.273-5.645-4.38-8.969-3.719c-3.182,1.096-6.165,7.567-3.583,10.442
					c3.341,3.487,5.532,2.783,8.146,1.225c1.385-0.825,3.2-1.95,4.346-3.43C92.114,19.99,92.314,18.484,91.454,16.764z"/>
				<path fill="#2E3192" d="M70.395,49.829c0.009-0.013,0.018-0.025,0.027-0.035l-0.014-0.004
					C70.404,49.804,70.4,49.816,70.395,49.829z"/>
				<path fill="#2E3192" d="M99.801,59.386c0.279-2.304-0.753-3.752-2.238-4.703c-0.596-0.381-1.265-0.683-1.952-0.927
					c0.551,0.216,1.083,0.473,1.566,0.782c1.486,0.951,2.518,2.399,2.238,4.703c-0.068,0.565-0.172,1.084-0.307,1.563
					c-0.554,1.964-1.648,3.225-3.121,3.974c1.504-0.609,2.673-1.677,3.362-3.371c0.051-0.149,0.101-0.3,0.145-0.458
					C99.629,60.47,99.733,59.951,99.801,59.386z"/>
				<path fill="#2E3192" d="M71.39,51.312l-1.305-0.615C70.3,50.814,70.77,51.034,71.39,51.312z"/>
				<path fill="#2E3192" d="M70.056,50.121c-0.083,0.261-0.127,0.446-0.101,0.492c0.008,0.014,0.053,0.042,0.129,0.084
					c0,0,0.065-0.274,0.155-0.527L70.056,50.121z"/>
				<path fill="#2E3192" d="M96.974,51.056c-0.034,0.011-0.067,0.021-0.099,0.033l0.04,0.007
					C96.915,51.096,96.937,51.08,96.974,51.056z"/>
				<path fill="#999999" d="M29.57,39.325c0,0-0.156-0.029-0.319-0.122c-0.205-0.116-0.421-0.334-0.351-0.72
					c-0.342,0.636-0.059,0.955,0.206,1.106c0.163,0.092,0.319,0.122,0.319,0.122l21.979,5.63l0.454-0.306L29.57,39.325z"/>
				<path fill="#999999" d="M70.395,49.829c0.005-0.013,0.009-0.025,0.013-0.039l-0.53-0.141l-9.473-2.426c0,0,0.001,0,0.001,0
					c3.496-1.983,6.004-3.469,6.2-3.759c0.092-0.136,0.169-0.288,0.232-0.445c0.064-0.161,0.22-0.286,0.251-0.447
					c-0.004,0.012,0.1,0.065,0.095,0.078c-0.002,0.005-0.007,0.017-0.008,0.022c-0.016,0.043-0.193-0.17-0.195-0.171L66.977,42.5
					c0.003,0.001,0.15,0.383,0.141,0.406C67.116,42.912,67.115,43,67.113,43h0.004c-0.006,0-0.013-0.055-0.018-0.042
					c-0.002,0.006-0.004-0.029-0.006-0.023c-0.003,0.008-0.046-0.004-0.05,0.003C67.041,42.941,67,42.925,67,42.928
					c0,0,0,0.001,0,0.001c0,0.003-0.08-0.037-0.082-0.034c-0.002,0.005-0.043-0.013-0.046-0.008
					c-0.003,0.007-0.026,0.003-0.03,0.009c-0.012,0.018-0.044,0.035-0.074,0.062c-0.006,0.005-0.021,0.01-0.027,0.016
					c-0.026,0.023-0.057,0.045-0.094,0.073c-0.022,0.017-0.053,0.037-0.079,0.056c-0.028,0.02-0.053,0.038-0.084,0.06
					c-0.039,0.027-0.086,0.059-0.132,0.089c-0.024,0.016-0.043,0.03-0.069,0.047c-0.003,0.002-0.006,0.004-0.009,0.006
					c-0.005,0.003-0.008,0.006-0.013,0.009c-0.042,0.028-0.086,0.056-0.131,0.086c-0.003,0.002-0.007,0.004-0.01,0.007
					c-0.974,0.631-2.875,1.741-5.265,3.098c-0.001,0-0.001-0.259-0.002-0.258C60.846,46.25,60.837,46,60.828,46c0,0-0.001,0-0.001,0
					c-0.321,0-0.65,0.628-0.987,0.819c-0.03,0.017-0.061,0.164-0.091,0.181c0.001-0.001,0.002,0.064,0.003,0.063
					c-0.001,0.001-0.002,0.034-0.003,0.034c-0.001,0.001-0.219,0.351-0.22,0.352C59.425,47.507,60,47.138,59,47.969v0.002V48h0.159
					c-0.026,0,0.065-0.305,0.027-0.284c-8.969,5.051-22.703,12.342-22.703,12.342s-2.09,0.987-3.815,0.012
					c-0.87-0.493-0.962-0.967-0.856-1.273c0.033-0.098,0.097-0.205,0.157-0.275c-0.09,0.084-1.141,1.116,0.512,2.052
					c1.724,0.976,3.851-0.104,3.851-0.104s14.635-7.906,23.557-12.951l9.843,2.52l0.322,0.085l0.183,0.048
					C70.286,50.036,70.34,49.908,70.395,49.829z"/>
				<path fill="#BCBCBC" d="M59.255,43.867c0.029,0.377,0.268,0.722,0.645,0.863s0.784,0.038,1.053-0.227
					c-0.302,0.114-0.644,0.124-0.969,0.002C59.658,44.384,59.407,44.151,59.255,43.867z"/>
				<path fill="#BCBCBC" d="M66.89,42.753c0,0-0.001-0.001-0.003-0.002c-0.006,0.014-0.011,0.027-0.017,0.041
					C66.877,42.779,66.884,42.766,66.89,42.753z"/>
				<path fill="#BCBCBC" d="M67.183,42.653c-0.013,0.034-0.209-0.155-0.205-0.153l0.003,0.001c0.002,0.001,0.087,0.214,0.103,0.171
					C67.086,42.666,67,42.656,67,42.649c0,0.002,0,0.001,0,0.003c0-0.013-0.006-0.067-0.003-0.079
					c-0.031,0.161-0.087,0.306-0.151,0.467c-0.06,0.155-0.14,0.294-0.236,0.435c-0.196,0.29-2.706,1.771-6.202,3.754l9.468,2.423
					l0.531,0.14l0.146,0.053c0.007-0.022,0.148,0.002,0.157-0.021c0.004-0.01,0.008-0.02,0.012-0.031
					c0.012-0.031,0.022-0.059,0.035-0.092c0.24-0.64,0.846-2.622,0.676-2.664c-0.006-0.001-0.01-0.208-0.016-0.21l-0.033-0.012
					c0,0-0.017-0.006-0.017-0.006c0,0-0.074,0.176-0.072,0.172c-0.805-0.193-2.797-0.441-2.797-0.441s-0.035-0.103-0.051-0.34
					c-0.055-0.858-0.266-2.914-0.88-3.764c-0.075-0.104-0.164-0.181-0.253-0.243c-0.04-0.028-0.023-0.017-0.159-0.058
					c-0.013,0.17,0.078,0.382,0.028,0.516L67.183,42.653z"/>
				<path fill="#BCBCBC" d="M60.803,46.533c0.008-0.004,0.016-0.009,0.024-0.013c0,0,0.001,0,0.001,0
					c0.009-0.005,0.018-0.01,0.026-0.015c-0.008,0.004-0.015,0.008-0.023,0.013C60.822,46.522,60.812,46.527,60.803,46.533z"/>
				<path fill="#BCBCBC" d="M66.132,43.398c0.046-0.03,0.09-0.059,0.131-0.086c0.005-0.003,0.008-0.006,0.013-0.009
					c-0.042,0.028-0.086,0.057-0.132,0.087C66.139,43.393,66.135,43.395,66.132,43.398z"/>
				<polygon fill="#BCBCBC" points="66.84,42.853 66.842,42.851 66.847,42.842 66.844,42.845 				"/>
				<path fill="#BCBCBC" d="M29.252,39.203c0.163,0.092,0.319,0.122,0.319,0.122l22.289,5.709l6.757-4.558
					c-10.146-1.743-25.529-4.118-25.529-4.118s-2.363-0.298-3.659,1.2c-0.332,0.384-0.484,0.686-0.527,0.924
					C28.83,38.87,29.046,39.087,29.252,39.203z"/>
				<path fill="#0071BC" d="M101.658,61.002c-1.439,3.498-4.427,6.896-10.582,6.015c-2.763-0.395-4.641-1.336-5.965-2.53
					c-3.741-3.375-3.047-8.781-5.323-9.687c-0.046-0.018-0.084-0.032-0.133-0.046l-9.17-4.326l0.007-0.019l0.001-0.032l1.224-3.606
					c-0.079-0.015-0.134-0.026-0.15-0.03c-0.095-0.021-0.217,0.147-0.35,0.424c-0.002,0.004-0.004,0.007-0.006,0.011l0,0
					c0.007-0.002,0.014-0.003,0.019-0.002c0.171,0.041-0.368,1.837-0.606,2.478c-0.013,0.035,0.109,0.114,0.099,0.142
					c-0.004,0.011-0.008,0.022-0.012,0.031c-0.01,0.028-0.151,0.003-0.157,0.021c-0.009,0.01-0.084-0.003-0.093,0.01
					c-0.055,0.078-0.153,0.224-0.201,0.358c-0.089,0.253-0.183,0.551-0.183,0.551L70.07,50.76l1.313,0.584l8.117,3.808
					c0.048,0.015,0.097,0.023,0.143,0.042c2.277,0.906,1.583,6.309,5.324,9.683c1.324,1.194,3.202,2.132,5.965,2.528
					c6.155,0.881,9.143-2.518,10.582-6.016c0.09-0.218,0.171-0.437,0.249-0.654C101.728,60.823,101.695,60.912,101.658,61.002z"/>
				<path fill="#0071BC" d="M85.056,56.803c1.976-4.407,4.276-4.48,7.262-3.89c0.984,0.194,2.163,0.442,3.293,0.844
					c0.687,0.244,1.356,0.546,1.952,0.927c1.486,0.951,2.518,2.399,2.238,4.703c-0.068,0.565-0.172,1.084-0.307,1.563
					c-0.044,0.158-0.094,0.309-0.145,0.458c0.108-0.266,0.206-0.546,0.29-0.844c0.135-0.479,0.239-0.998,0.307-1.563
					c0.279-2.304-0.753-3.752-2.238-4.703c-1.576-1.009-3.664-1.458-5.245-1.771c-2.985-0.589-5.285-0.517-7.262,3.89
					c-0.058,0.129-0.115,0.26-0.173,0.396c-0.046,0.109-0.085,0.219-0.12,0.33C84.957,57.028,85.006,56.914,85.056,56.803z"/>
				<path fill="#29ABE2" d="M70.493,50.408l-0.007,0.019l9.17,4.326c0.048,0.015,0.091,0.03,0.137,0.048
					c2.277,0.906,1.58,6.312,5.321,9.686c1.324,1.194,3.2,2.134,5.964,2.529c6.155,0.881,9.142-2.517,10.581-6.015
					c0.037-0.089,0.07-0.179,0.105-0.268c0.977-2.512,1.18-5.021,1.201-5.982c0.033-1.515-0.515-1.971-1.097-2.158
					c-0.315-0.101-0.639-0.124-0.886-0.192c-0.346-0.096-0.665-0.391-1.015-0.708c-0.363-0.329-0.759-0.682-1.253-0.861
					c-0.821-0.298-1.537,0.096-1.74,0.225c-0.037,0.024-0.059,0.04-0.059,0.04l0.023,0.017l-25.092-4.317l-0.007,0.019l-1.282,3.584
					L70.493,50.408z M85.2,56.417c1.976-4.407,4.276-4.48,7.262-3.89c1.582,0.312,3.669,0.762,5.245,1.771
					c1.486,0.951,2.518,2.399,2.238,4.703c-0.068,0.565-0.172,1.084-0.307,1.563c-0.084,0.298-0.181,0.578-0.29,0.844
					c-0.689,1.694-1.857,2.762-3.362,3.371c-1.073,0.434-2.316,0.636-3.677,0.665c-2.246,0.049-4.73-1.477-6.223-3.48
					c-1.112-1.492-1.675-3.248-1.179-4.82c0.035-0.111,0.075-0.221,0.12-0.33C85.085,56.677,85.143,56.546,85.2,56.417z"/>
				<path fill="#2E3192" d="M67.002,34.813c-0.022-0.003-0.044-0.01-0.064-0.02c-0.1-0.021-0.165-0.129-0.307-0.205
					c-0.023,0.094,0.02,0.237,0.108,0.409l0.01-0.007L67.002,34.813z"/>
				<path fill="#2E3192" d="M68.792,37.225L68.792,37.225c0.199,0.141,0.382,0.244,0.524,0.284c-0.025-0.08-0.164-0.255-0.312-0.448
					l-0.015,0.04L68.792,37.225z"/>
				<path fill="#999999" d="M68.909,36.893c-0.003-0.006-0.009-0.013-0.011-0.019l-2.478,1.461c0.009,0.044,0.032,0.149,0.068,0.284
					c0.008,0.029,0.059-0.058,0.069-0.025l2.321-1.598l-0.012-0.005l0.363,0.198l0.015-0.04c0.005-0.014-0.124-0.079-0.138-0.1
					C69.071,37.024,68.91,36.982,68.909,36.893z"/>
				<path fill="#CCCCCC" d="M32.704,59.981c1.724,0.976,3.849-0.097,3.849-0.097s13.802-7.464,22.771-12.514
					c0.037-0.021,0.073-0.041,0.11-0.062l0.001,0c0.105-0.059,0.21-0.119,0.314-0.177c0.001-0.001,0.002-0.001,0.003-0.002
					c0.029-0.016,0.059-0.033,0.087-0.049c0.329-0.186,0.65-0.368,0.964-0.546c0.009-0.005,0.019-0.011,0.028-0.016
					c2.419-1.373,4.341-2.496,5.312-3.127c0.046-0.03,0.09-0.059,0.132-0.087c0.003-0.002,0.006-0.004,0.009-0.006
					c0.025-0.017,0.045-0.031,0.069-0.047c0.045-0.031,0.092-0.062,0.131-0.089c0.032-0.022,0.056-0.041,0.084-0.061
					c0.026-0.019,0.055-0.039,0.077-0.056c0.037-0.028,0.065-0.051,0.091-0.074c0.007-0.006,0.017-0.013,0.023-0.018
					c0.03-0.027,0.052-0.05,0.064-0.067c0.004-0.006,0.007-0.013,0.011-0.02c0.002-0.004,0.004-0.008,0.006-0.011
					c0.001-0.003,0.003-0.005,0.004-0.008c0.002-0.005,0.119,0.033,0.122,0.029c0.004-0.007,0.123,0.028,0.126,0.02
					c0.002-0.006,0.004-0.012,0.007-0.018c0.005-0.014,0.01-0.027,0.015-0.041c0.002-0.006,0.004-0.012,0.007-0.018
					c0.009-0.023-0.086-0.12-0.079-0.145c0.008-0.034-0.016-0.155-0.016-0.155l-0.028-0.011c0,0,0.05-0.267,0.062-0.437
					c0.08-1.073-0.337-2.662-0.54-3.376c-0.009-0.031-0.02-0.053-0.028-0.082c-0.036-0.136-0.061-0.236-0.07-0.281
					c-0.003-0.015-0.006-0.023-0.006-0.023l2.501-1.501l-0.001,0c-0.388-0.476-0.987-1.158-1.373-1.665
					c-0.119-0.147-0.226-0.282-0.316-0.398c-0.096,0.061-0.166,0.077-0.225,0.068l-0.253,0.177l-0.01,0.007l-8.123,5.479
					l-6.757,4.558l-0.454,0.306L32.248,58.263c0,0-0.138,0.084-0.261,0.226c-0.003,0.003-0.005,0.007-0.008,0.01
					c-0.059,0.071-0.115,0.156-0.148,0.254C31.727,59.059,31.837,59.49,32.704,59.981z M60.735,42.501
					c0.713,0.267,1.075,1.062,0.808,1.775c-0.267,0.713-1.062,1.075-1.775,0.808c-0.713-0.267-1.075-1.062-0.808-1.775
					C59.226,42.596,60.021,42.234,60.735,42.501z"/>
				<path fill="#2E3192" d="M76.108,15.915c-2.853,4.027-1.034,8.625-1.76,10.912C76.188,25.21,73.718,20.35,76.108,15.915z"/>
				<path fill="#2E3192" d="M82.88,12.933c-0.132,0.026-0.263,0.066-0.395,0.111c3.324-0.661,6.835-0.553,8.969,3.719
					c0.859,1.72,0.659,3.227-0.06,4.518c1.08-1.395,1.566-3.105,0.529-5.181c-0.254-0.509-0.527-0.963-0.814-1.369
					C88.891,12.207,85.686,12.374,82.88,12.933z"/>
				<path fill="#0071BC" d="M78.606,23.17c0.1,0.109,0.198,0.214,0.296,0.315c-2.581-2.875,0.402-9.346,3.583-10.442
					c0.131-0.045,0.263-0.085,0.395-0.111c2.805-0.56,6.011-0.726,8.228,1.798c-2.132-3.003-5.153-3.262-8.542-2.135
					c-2.132,0.709-3.959,2.98-4.692,5.368C77.289,19.868,77.398,21.848,78.606,23.17z"/>
				<path fill="#0071BC" d="M67.336,34.786c0.002-0.001,0.115,0.04,0.115,0.037l0.012-0.031c-0.03,0.08,0.028,0.313,0.156,0.481
					c0.386,0.508,0.993,0.737,1.198,1.701l0.016,0.006c0.007,0.002,0.034-0.024,0.034-0.002c0.001,0.089,0.064,0.043,0.098,0.07
					c0.007,0.005,0.023-0.01,0.029-0.001c0.121,0.183,0.289,0.374,0.314,0.454c0.962-0.08,22.728-12.603,22.728-12.603
					s0.986,0.305,1.783-0.354c0.797-0.659,1.012-1.82,1.609-2.24c0.597-0.42,1.911-0.697,1.078-2.878
					c-0.374-0.981-1.57-3.628-3.643-5.786c1.881,2.089,2.975,4.518,3.33,5.448c0.54,1.416,0.177,2.03-0.309,2.401
					c-0.262,0.201-0.56,0.331-0.77,0.478c-0.293,0.206-0.495,0.592-0.718,1.008c-0.231,0.432-0.486,0.897-0.891,1.232
					c-0.797,0.659-1.783,0.355-1.783,0.355L69.453,37.12l-2.38-2.998c-0.202,0.204-0.324,0.378-0.41,0.478
					c0.119,0.064,0.191,0.152,0.276,0.193c0.02,0.01,0.096,0.037,0.118,0.04C67.116,34.843,67.24,34.848,67.336,34.786z"/>
				<path fill="#29ABE2" d="M91.723,24.563c0,0,0.986,0.303,1.783-0.355c0.405-0.335,0.66-0.8,0.891-1.232
					c0.223-0.417,0.424-0.802,0.718-1.008c0.21-0.147,0.507-0.278,0.77-0.479c0.485-0.371,0.849-0.985,0.309-2.401
					c-0.355-0.93-1.449-3.359-3.33-5.449c-2.53-2.811-6.486-5.008-11.987-2.111c-2.47,1.301-3.923,2.817-4.768,4.386
					c-2.39,4.435,0.08,9.294-1.76,10.912c-0.037,0.033-0.076,0.064-0.116,0.094l-7.191,7.161l0.013,0.016l0.019,0.024l2.38,2.998
					L91.723,24.563z M77.874,17.964c0.734-2.389,2.561-4.659,4.692-5.368c3.389-1.127,6.41-0.868,8.542,2.135
					c0.288,0.406,0.56,0.86,0.814,1.369c1.037,2.076,0.551,3.787-0.529,5.181c-1.146,1.48-2.961,2.604-4.346,3.43
					c-2.614,1.558-4.805,2.262-8.146-1.225c-0.098-0.102-0.196-0.206-0.296-0.315C77.398,21.848,77.289,19.868,77.874,17.964z"/>
				<path fill="#666666" d="M59.767,45.084c0.713,0.267,1.508-0.095,1.775-0.808c0.267-0.713-0.095-1.508-0.808-1.775
					c-0.713-0.267-1.508,0.095-1.775,0.808C58.692,44.022,59.054,44.817,59.767,45.084z M60.602,42.855
					c0.518,0.194,0.781,0.771,0.587,1.289c-0.053,0.141-0.135,0.261-0.236,0.36c-0.269,0.265-0.676,0.368-1.053,0.227
					s-0.616-0.486-0.645-0.863c-0.011-0.141,0.006-0.285,0.058-0.426C59.507,42.923,60.084,42.661,60.602,42.855z"/>
			</g>
			<path fill="#999999" d="M60.807,42.308c-0.713-0.267-1.508,0.095-1.775,0.808c-0.267,0.713,0.095,1.508,0.808,1.775
				c0.713,0.267,1.508-0.095,1.775-0.808C61.882,43.37,61.52,42.575,60.807,42.308z M59.972,44.538
				c-0.518-0.194-0.781-0.771-0.587-1.289c0.194-0.518,0.771-0.781,1.289-0.587c0.518,0.194,0.781,0.771,0.587,1.289
				C61.067,44.469,60.49,44.732,59.972,44.538z"/>
		</g>
		<g>
			<linearGradient id="SVGID_4_" gradientUnits="userSpaceOnUse" x1="47.805" y1="47.6737" x2="-2.0728" y2="65.5738">
				<stop  offset="0" style="stop-color:#FFFFFF"/>
				<stop  offset="1" style="stop-color:#D8D8D8"/>
			</linearGradient>
			<path fill="url(#SVGID_4_)" d="M22.005,43.851c0,0-20.383,15.114-25.005,16.026c0.943,4.37,21.319,11.46,21.319,11.46
				l30.26-25.082L22.005,43.851z"/>
			<linearGradient id="SVGID_5_" gradientUnits="userSpaceOnUse" x1="45.1711" y1="47.8838" x2="47.6041" y2="84.2813">
				<stop  offset="0.0051" style="stop-color:#FFFFFF"/>
				<stop  offset="0.7245" style="stop-color:#FFFFFF"/>
				<stop  offset="0.9949" style="stop-color:#D8D8D8"/>
			</linearGradient>
			<path fill="url(#SVGID_5_)" d="M73.291,43.393c-12.124,10.274-24.712,2.863-24.712,2.863l-30.26,25.082
				c0,0,25.954,13.099,32.736,12.814C57.837,83.866,74.333,59.5,73.291,43.393z"/>
		</g>
	</g>
	<g id="Paper_Over_Rock">
	</g>
</g>
<g id="Rock">
</g>
<g id="Paper">
</g>
<g id="Scissors">
</g>
<g id="Message">
</g>
<g id="New_Game" display="none">
	<g id="Arrow_26" display="inline">
	</g>
</g>
</svg>
