<?xml version="1.0" encoding="utf-8"?>
<!-- Generator: Adobe Illustrator 17.1.0, SVG Export Plug-In . SVG Version: 6.00 Build 0)  -->
<!DOCTYPE svg PUBLIC "-//W3C//DTD SVG 1.1//EN" "http://www.w3.org/Graphics/SVG/1.1/DTD/svg11.dtd">
<svg version="1.1" xmlns="http://www.w3.org/2000/svg" xmlns:xlink="http://www.w3.org/1999/xlink" x="0px" y="0px"
	 viewBox="0 0 100 100" enable-background="new 0 0 100 100" xml:space="preserve">
<filter  id="AI_GaussianBlur_7">
	<feGaussianBlur  stdDeviation="7"></feGaussianBlur>
</filter>
<filter  id="AI_GaussianBlur_4">
	<feGaussianBlur  stdDeviation="2"></feGaussianBlur>
</filter>
<g id="Layer_7">
</g>
<g id="Layer_4">
	<g id="SMS">
		<g id="Email">
		</g>
	</g>
</g>
<g id="Send_Code">
</g>
<g id="Record">
	<g id="Rock_crushes_Scissors">
	</g>
	<g id="Scissors_Cuts_Paper">
	</g>
	<g id="Paper_Over_Rock">
		<g>
			<g id="shadow_19_" opacity="0.4" filter="url(#AI_GaussianBlur_7)">
				<polygon points="90.281,64.418 89.362,56.896 78.461,52.967 76.343,52.204 76.204,52.172 71.442,51.072 66.847,52.447 
					58.116,53.498 45.251,54.873 41.115,56.653 35.907,57.462 31.772,60.697 21.969,61.83 11.095,65.389 12.167,71.375 
					14.144,72.062 17.987,73.397 26.105,74.691 34.835,77.765 56.891,82.699 57.637,82.509 65.468,80.515 82.317,76.713 
					84.461,74.449 93.038,71.617 				"/>
			</g>
			<polygon fill="#B3B3B3" points="62.841,65.737 57.786,52.565 60.237,42.456 66.017,32.997 48.674,34.809 43.995,42.266 
				31.714,46.798 26.159,54.547 12.435,62.442 16.278,64.971 24.396,67.422 33.127,73.242 55.182,82.585 60.543,74.314 			"/>
			<polygon fill="#999999" points="66.017,32.997 66.017,32.997 60.237,42.456 57.786,52.565 62.841,65.737 67.668,64.607 
				78.841,62.442 81.075,50.148 74.496,32.929 76.752,26.287 74.634,24.842 74.496,24.781 68.661,28.671 			"/>
			<polygon fill="#CCCCCC" points="31.714,46.798 43.995,42.266 48.674,34.809 66.017,32.997 68.661,28.671 74.496,24.781 
				69.733,22.697 65.138,25.301 56.408,27.292 43.542,29.896 39.406,33.266 34.199,34.797 30.063,40.924 20.261,43.068 
				9.386,49.808 10.458,61.142 12.435,62.442 26.159,54.547 			"/>
			<polygon fill="#CCCCCC" points="68.661,28.671 66.017,32.997 66.017,32.997 			"/>
			<polygon fill="#808080" points="60.543,74.314 55.182,82.585 55.928,82.225 			"/>
			<polygon fill="#808080" points="81.075,50.148 78.841,62.442 67.668,64.607 62.841,65.737 60.543,74.314 55.928,82.225 
				63.76,78.45 80.608,71.251 82.752,66.962 91.329,61.601 88.572,47.97 87.653,33.725 76.752,26.287 74.496,32.929 			"/>
		</g>
		<g>
			<g>
				<path id="shadow_15_" filter="url(#AI_GaussianBlur_4)" d="M75.679,21.503L32.375,34.628c0,0-15.33,13.09-19.94,14
					c0.941,4.36,17.065,1.697,17.065,1.697s23.921,21.67,30.686,21.386c6.766-0.284,6.305-14.51,17.785-26.911
					C77.972,44.8,95.839,36.93,75.679,21.503z"/>
				<g>
					<linearGradient id="SVGID_1_" gradientUnits="userSpaceOnUse" x1="54.5711" y1="29.7485" x2="4.8122" y2="47.6059">
						<stop  offset="0" style="stop-color:#FFFFFF"/>
						<stop  offset="1" style="stop-color:#D8D8D8"/>
					</linearGradient>
					<path fill="url(#SVGID_1_)" d="M30.518,30.632C27.667,31.646,10.185,45.71,5.574,46.62c0.941,4.36,14.593-3.092,23.926-0.125
						c7.699-4.697,27.528-13.464,27.528-13.464S33.37,29.618,30.518,30.632z"/>
					<linearGradient id="SVGID_2_" gradientUnits="userSpaceOnUse" x1="54.2063" y1="35.8372" x2="56.6456" y2="72.33">
						<stop  offset="0.0051" style="stop-color:#FFFFFF"/>
						<stop  offset="0.7245" style="stop-color:#FFFFFF"/>
						<stop  offset="0.9949" style="stop-color:#D8D8D8"/>
					</linearGradient>
					<path fill="url(#SVGID_2_)" d="M80,41.448L57.028,33.03c0,0-19.83,8.767-27.528,13.464
						c6.833,2.467,32.519,25.578,32.519,25.578S63.291,50.314,80,41.448z"/>
				</g>
			</g>
			<linearGradient id="SVGID_3_" gradientUnits="userSpaceOnUse" x1="72.0405" y1="30.1553" x2="93.9723" y2="29.0759">
				<stop  offset="0" style="stop-color:#FFFFFF"/>
				<stop  offset="1" style="stop-color:#D8D8D8"/>
			</linearGradient>
			<path fill="url(#SVGID_3_)" d="M57.028,33.03L80,41.448c9.833-5.777,12.333-3.153,14.329-1.451
				c-1.669-6.369-7.744-19.517-16.358-21.818L57.028,33.03z"/>
			<linearGradient id="SVGID_4_" gradientUnits="userSpaceOnUse" x1="33.3525" y1="29.5379" x2="88.7734" y2="19.3758">
				<stop  offset="0" style="stop-color:#FFFFFF"/>
				<stop  offset="1" style="stop-color:#D8D8D8"/>
			</linearGradient>
			<path fill="url(#SVGID_4_)" d="M57.028,33.03l20.943-14.851c0,0-9.539-3.63-22.905-0.374C49,21.628,38.447,25.44,30.518,30.632
				C36.333,30.461,57.028,33.03,57.028,33.03z"/>
		</g>
	</g>
</g>
<g id="Rock">
</g>
<g id="Paper">
</g>
<g id="Scissors">
</g>
<g id="Message">
</g>
<g id="New_Game" display="none">
	<g id="Arrow_26" display="inline">
	</g>
</g>
</svg>
