<?xml version="1.0" encoding="utf-8"?>
<!-- Generator: Adobe Illustrator 17.1.0, SVG Export Plug-In . SVG Version: 6.00 Build 0)  -->
<!DOCTYPE svg PUBLIC "-//W3C//DTD SVG 1.1//EN" "http://www.w3.org/Graphics/SVG/1.1/DTD/svg11.dtd">
<svg version="1.1" xmlns="http://www.w3.org/2000/svg" xmlns:xlink="http://www.w3.org/1999/xlink" x="0px" y="0px"
	 viewBox="0 0 100 100" enable-background="new 0 0 100 100" xml:space="preserve">
<filter  id="AI_GaussianBlur_7">
	<feGaussianBlur  stdDeviation="7"></feGaussianBlur>
</filter>
<filter  id="AI_GaussianBlur_4">
	<feGaussianBlur  stdDeviation="2"></feGaussianBlur>
</filter>
<g id="Layer_7">
</g>
<g id="Layer_4">
	<g id="SMS">
		<g id="Email">
		</g>
	</g>
</g>
<g id="Send_Code">
</g>
<g id="Record">
	<g id="Rock_crushes_Scissors">
		<g>
			<path id="shaodw_4_" filter="url(#AI_GaussianBlur_4)" d="M95.018,60.928c-0.786-0.839-1.517-0.994-2.136-0.996
				c-0.335-0.001-0.639,0.042-0.897,0.046c-0.362,0.007-0.805-0.1-1.288-0.214c-0.5-0.118-1.043-0.243-1.587-0.258
				c-0.906-0.024-1.364,0.315-1.486,0.421c-0.022,0.019-0.034,0.032-0.034,0.032l-0.04,0.003l-27.765,2.119l0.001,0.013
				c-0.095,0.006-0.159,0.01-0.179,0.011c-0.116,0.006-0.183,0.133-0.218,0.33c0,0.003-0.001,0.005-0.002,0.008l0,0
				c0-0.003,0.001-0.005,0.002-0.008c-0.995,0.042-3.38,0.224-3.38,0.224s-0.079-0.09-0.192-0.233
				c-0.408-0.519-1.46-1.746-2.496-2.142c-0.127-0.048-0.257-0.085-0.383-0.106c-0.057-0.009-0.188-0.014-0.36-0.013
				c-0.315-0.655-1.377-1.526-1.873-1.906c-0.021-0.016-0.038-0.032-0.057-0.047c-0.091-0.072-0.153-0.129-0.18-0.153
				c-0.009-0.008-0.014-0.013-0.014-0.013l2.277-1.29c0.007,0.021,0.015,0.036,0.023,0.048c-0.006-0.003-0.015-0.006-0.019-0.009
				l-2.265,1.263c0.027,0.024,0.09,0.081,0.182,0.153c0.02,0.016,0.039,0.03,0.062,0.047l2.033-1.247
				c0.275,0.046,0.518,0.073,0.691,0.072c-0.058-0.041-0.278-0.117-0.515-0.201c0.001-0.009-0.018-0.019-0.041-0.028
				c0.009,0.002,0.019,0.004,0.028,0.008c0.203,0.083,0.46,0.169,0.518,0.211c1.038-0.207,17.865-9.515,17.865-9.515
				s1.007,0.028,1.454-0.356c0.442-0.38,0.169-0.912,0.526-1.159c0.354-0.244,1.381-0.498-0.196-1.343
				c-0.703-0.377-2.741-1.366-5.337-2.065c-3.22-0.922-7.49-1.471-11.584,0.226c-1.922,0.797-2.835,1.608-3.151,2.397
				c-1.535,2.177,1.885,4.163,1.945,5.386c-0.027,0.021-0.055,0.042-0.087,0.063l-5.215,4.832l0.02,0.007l0.03,0.01
				c-0.154,0.146-0.231,0.263-0.293,0.333c0.157,0.016,0.269,0.053,0.379,0.063c-0.12,0.005-0.231-0.045-0.419-0.064
				c0.008,0.056,0.107,0.129,0.266,0.211l-7.688,4.697c-13.603,0.945-36.223,2.707-36.223,2.707s-3.712,0.337-5.548,1.719
				c-0.479,0.361-0.682,0.62-0.719,0.806c-0.467,0.556,0.036,0.722,0.489,0.767c0.277,0.027,0.534,0.009,0.534,0.009l33.773-1.307
				L8.48,81.243c0,0-0.224,0.127-0.408,0.301c-0.004,0.004-0.008,0.008-0.012,0.012c-0.088,0.085-0.166,0.182-0.204,0.284
				c0.001-0.001,0.001-0.003,0.001-0.004c0.038-0.103,0.115-0.197,0.205-0.283c-0.139,0.11-1.794,1.474,1.333,1.73
				c3.24,0.265,6.608-1.511,6.608-1.511s20.02-11.026,30.018-16.73l12.876-0.498l0.409-0.014l0.232-0.008l0,0l-0.232,0.008
				c0.015,0.185,0.044,0.313,0.094,0.337c0.015,0.007,0.079,0.016,0.185,0.026l0,0c0.3,0.029,0.938,0.069,1.772,0.115l10.807,0.699
				c0.059-0.001,0.118-0.001,0.177,0.001c2.886,0.086,4.89,3.759,10.723,5.136c2.066,0.488,4.565,0.667,7.63,0.263
				c6.611-0.871,7.417-3.691,6.713-6.105c-0.043-0.147-0.093-0.292-0.146-0.436C96.727,62.921,95.522,61.466,95.018,60.928z
				 M58.17,43.355c2.841-0.593,6.04-0.87,9.48,0.715c1.404,0.647,1.799,1.315,1.651,1.953c-0.464,0.779-1.691,1.488-2.658,2.025
				c-1.872,1.039-3.718,1.646-8.283,0.393C54.788,47.392,55.526,44.141,58.17,43.355z M94.17,68.234
				c-0.789,0.514-1.89,0.924-3.224,1.254c-2.235,0.553-5.642,0.127-8.29-0.844c-1.959-0.718-3.468-1.724-3.758-2.824
				c-0.008-0.083-0.015-0.165-0.02-0.244c-0.189-3.074,2.072-3.553,5.287-3.768c1.047-0.07,2.3-0.145,3.58-0.122
				c0.631,0.023,1.265,0.072,1.88,0.16c1.887,0.27,3.622,0.907,4.636,2.3c0.252,0.347,0.448,0.675,0.592,0.988
				C95.455,66.435,95.148,67.444,94.17,68.234z"/>
			<g>
				<polygon fill="none" points="53.204,59.888 53.204,59.887 53.206,59.881 53.203,59.89 				"/>
				<path fill="none" d="M47.458,63.182C47.466,63.178,47.475,63,47.482,63c0.001,0,0.001,0,0.002,0c2.38-1,4.206-2.235,5.098-2.803
					c0.003-0.002,0.006,0.078,0.01,0.076c0.004-0.002,0.007-0.046,0.01-0.048C51.715,60.792,49.87,61.819,47.458,63.182z"/>
				<polygon fill="none" points="53.237,59.713 53.238,59.703 53.238,59.7 				"/>
				<polygon fill="none" points="53.198,59.904 53.202,59.894 53.201,59.896 				"/>
				<path fill="none" d="M60.312,63.305c-0.001,0.023,0.218,0.048,0.218,0.07c0-0.02,0-0.04,0-0.065
					c-0.001-0.447-0.091-1.652-0.3-1.643C60.438,61.659,60.31,62.858,60.312,63.305z"/>
				<path fill="none" d="M53.262,59.995c-0.011,0.106-0.042,0.211-0.096,0.31C53.222,60.203,53.252,60.099,53.262,59.995z"/>
				<path fill="none" d="M60.066,63.342l-0.528-0.008l-12.067,0.608l0.009-0.019l12.097-0.173L60.128,64h0.017
					c-0.001,0,0.398,0.123,0.398,0.103c0,0.016-0.018-0.547-0.018-0.547L60.066,63.342z"/>
				<path fill="none" d="M53.05,60.047c-0.019,0.014-0.045,0.032-0.067,0.048C53.005,60.079,53.031,60.061,53.05,60.047z"/>
				<path fill="none" d="M53.146,59.97c-0.005,0.004-0.013,0.011-0.019,0.015C53.132,59.981,53.141,59.974,53.146,59.97z"/>
				<path fill="none" d="M95.043,64.37c-0.144-0.308-0.338-0.632-0.589-0.973c-1.008-1.373-2.73-2.004-4.602-2.273
					c-0.61-0.088-1.239-0.137-1.865-0.16c-1.268-0.024-2.511,0.047-3.549,0.114c-3.187,0.206-5.426,0.674-5.229,3.7
					c0.005,0.078,0.012,0.159,0.02,0.241c0.291,1.084,1.788,2.075,3.732,2.785c2.626,0.96,6.003,1.385,8.217,0.844
					c1.321-0.322,2.412-0.724,3.193-1.228C95.339,66.644,95.642,65.651,95.043,64.37z"/>
				<path fill="none" d="M46.025,64.16c0.108-0.061,0.215-0.121,0.322-0.181c0,0,0.002-0.001,0.002-0.002
					c-0.108,0.061-0.216,0.122-0.326,0.183C46.024,64.161,46.024,64.16,46.025,64.16z"/>
				<path fill="none" d="M17.32,79.978c0,0-3.29,1.714-6.474,1.448c-1.609-0.135-1.893-0.487-1.778-0.803
					c-0.118,0.316,0.163,0.669,1.778,0.805C14.029,81.695,17.319,79.979,17.32,79.978c0,0.001,18.553-10.2,28.559-15.834
					C45.918,64.123,45.927,64,45.963,64c0,0-0.001,0-0.001,0c-0.036,0-0.045,0.123-0.083,0.145
					C35.872,69.778,17.32,79.978,17.32,79.978z"/>
				<path fill="none" d="M52.909,60.147c-0.035,0.024-0.077,0.051-0.117,0.078C52.833,60.198,52.875,60.171,52.909,60.147z"/>
				<path fill="none" d="M46.443,63.925c-0.03,0.017-0.06,0.034-0.09,0.051c-0.001,0.001-0.002,0.001-0.002,0.002
					C46.381,63.96,46.413,63.942,46.443,63.925c0.348-0.196,0.684-0.386,1.011-0.57c-0.008,0.004-0.016,0.009-0.025,0.014
					C47.11,63.548,46.781,63.734,46.443,63.925z"/>
				<path fill="none" d="M50.654,55.181c-0.002,0.001-0.004,0.002-0.006,0.003c0.141,0.05,0.308,0.107,0.493,0.169
					c-0.202-0.072-0.371-0.137-0.485-0.191L50.654,55.181z"/>
				<path fill="none" d="M45.686,62.247c0.442,0.011,0.856-0.065,1.181-0.198c0.086-0.082,0.143-0.174,0.155-0.273
					c0.046-0.361-0.479-0.667-1.174-0.685c-0.697-0.018-1.308,0.259-1.364,0.622c-0.015,0.099,0.016,0.193,0.079,0.28
					C44.852,62.141,45.243,62.236,45.686,62.247z"/>
				<path fill="none" d="M67.998,43.565c-3.42-1.569-6.593-1.3-9.408-0.718c-2.618,0.772-3.333,3.979,0.214,5.019
					c4.532,1.243,6.36,0.646,8.212-0.376c0.957-0.528,2.172-1.227,2.629-1.994C69.789,44.866,69.394,44.206,67.998,43.565z"/>
				<path fill="#2E3192" d="M60.082,63.463c0.005-0.01,0.01-0.019,0.016-0.027l-0.017,0.001
					C60.081,63.445,60.082,63.454,60.082,63.463z"/>
				<path fill="#2E3192" d="M94.888,63.407c-1.013-1.372-2.734-2.002-4.603-2.271c-0.751-0.108-1.529-0.158-2.297-0.173
					c0.626,0.023,1.254,0.073,1.865,0.16c1.871,0.269,3.593,0.899,4.602,2.273c0.251,0.342,0.445,0.665,0.589,0.973
					c0.599,1.281,0.296,2.274-0.672,3.05c1.078-0.697,1.559-1.589,1.234-2.741c-0.037-0.098-0.077-0.197-0.125-0.299
					C95.335,64.072,95.14,63.749,94.888,63.407z"/>
				<path fill="#2E3192" d="M61.851,64.189l-1.755-0.116C60.393,64.102,61.026,64.143,61.851,64.189z"/>
				<path fill="#2E3192" d="M59.819,63.716c0.016,0.182,0.045,0.308,0.094,0.331c0.015,0.007,0.078,0.016,0.183,0.026
					c0,0-0.042-0.187-0.048-0.365L59.819,63.716z"/>
				<path fill="#2E3192" d="M87.863,59.231c-0.026,0.011-0.051,0.023-0.074,0.034l0.04-0.003
					C87.829,59.263,87.841,59.251,87.863,59.231z"/>
				<path fill="#999999" d="M1.818,65.535c0,0-0.252,0.017-0.526-0.01c-0.345-0.034-0.721-0.14-0.664-0.437
					c-0.457,0.546,0.043,0.71,0.49,0.754c0.274,0.027,0.528,0.01,0.528,0.01l33.379-1.226l0.504-0.307L1.818,65.535z"/>
				<path fill="#999999" d="M60,63.463c0-0.009,0-0.018,0-0.027l-0.606,0.076L47.151,64c0,0,0.021,0,0.022,0
					c3.493-2,5.876-3.44,5.991-3.652c0.054-0.099,0.086-0.226,0.097-0.332c0.012-0.108,0.649-0.211,0.622-0.312
					c0.001,0.008,0.644,0.026,0.644,0.034c0,0.003,0.011,0.272,0.011,0.275c0,0.028-1.281-0.013-1.284-0.013H53.25
					c0.004,0,0.042,0.146,0.041,0.162c0,0.004-0.001-0.165-0.001-0.161l0.573-0.026C53.86,59.984,54.424,60,54.424,60h-0.001
					c0,0-0.204-0.238-0.206-0.233c-0.001,0.002-0.094-0.213-0.094-0.213L54.07,59.54c0,0-0.433,0.177-0.434,0.18
					c-0.001,0.003-0.219,0.093-0.22,0.097c-0.001,0.005-0.111,0.053-0.113,0.058c-0.007,0.013-0.078,0.052-0.102,0.074
					c-0.005,0.004-0.041,0.022-0.046,0.026c-0.022,0.018-0.058,0.043-0.09,0.067c-0.019,0.014-0.052,0.035-0.074,0.051
					c-0.024,0.017-0.049,0.034-0.077,0.053c-0.035,0.024-0.078,0.052-0.119,0.079c-0.021,0.014-0.039,0.026-0.062,0.041
					c-0.002,0.002-0.006,0.004-0.008,0.005c-0.004,0.003-0.007,0.005-0.012,0.008c-0.037,0.024-0.078,0.05-0.119,0.077
					c-0.003,0.002-0.002-0.051-0.005-0.049c-0.892,0.568-2.718,1.645-5.09,2.914c-0.001,0,0.27,0.006,0.269,0.006
					c-0.008,0-0.203,0.065-0.204,0.07c0,0-0.004,0.03-0.004,0.03c-1.134,0.167-0.716,0.389-1.063,0.584
					c-0.031,0.017-0.089,0.042-0.12,0.06c0.001-0.001-0.012,0.002-0.011,0.002c-0.001,0.001-0.009,0.003-0.01,0.004
					c-0.001,0.001-0.035-0.079-0.036-0.078C46.213,63.958,46.064,64,45.963,64h-0.001c0,0,0,0-0.001,0c0,0,0.001,0,0.001,0
					c-0.036,0-0.045,0.123-0.084,0.145C35.872,69.778,17.28,79.963,17.28,79.963s-3.273,1.725-6.458,1.458
					c-1.616-0.135-1.885-0.486-1.767-0.802c0.037-0.101,0.12-0.195,0.207-0.28c-0.137,0.108-1.754,1.44,1.335,1.697
					c3.2,0.266,6.513-1.468,6.513-1.468s19.702-10.783,29.558-16.372l12.745-0.468l0.405-0.013l0.189-0.007
					C60.004,63.615,60,63.523,60,63.463z"/>
				<path fill="#BCBCBC" d="M44.563,61.993c0.169,0.232,0.586,0.402,1.1,0.414c0.513,0.012,0.973-0.136,1.204-0.358
					c-0.326,0.133-0.739,0.209-1.181,0.198C45.243,62.236,44.852,62.141,44.563,61.993z"/>
				<path fill="#BCBCBC" d="M53.22,59.827c0,0-0.002,0-0.004-0.001c-0.001,0.009-0.003,0.018-0.004,0.027
					C53.215,59.845,53.218,59.836,53.22,59.827z"/>
				<path fill="#BCBCBC" d="M54.41,60.127c0,0-1.166-0.127-1.16-0.127h0.004c0.003,0,0.973-0.056,0.974-0.084
					c0-0.004-0.228-0.174-0.228-0.178c0,0.001,0,0.001,0,0.002c0-0.008-0.378-0.035-0.379-0.043c0.026,0.101-0.156,0.2-0.167,0.308
					c-0.01,0.104-0.135,0.203-0.191,0.306c-0.114,0.212-2.53,1.609-6.012,3.589l12.176-0.659L60.077,63h0.482
					c-0.001,0,0.465,0.152,0.464,0.136c0-0.007,0.004,0.111,0.004,0.103c-0.001-0.022-0.467,0.021-0.467-0.002
					c-0.003-0.446-0.208-2.45-0.416-2.443c-0.007,0-0.215-0.794-0.222-0.794h-0.01l-0.42,0.456c0,0-0.008,0.864-0.008,0.861
					c-0.001,0.065-3.145,0.383-3.145,0.383s0.024-0.003-0.089-0.145c-0.407-0.511-1.403-1.679-2.431-2.069
					c-0.126-0.048-0.23-0.063-0.355-0.084c-0.056-0.009,0.416,0.015,0.246,0.015c0.051,0.103,0.674,0.183,0.678,0.272L54.41,60.127z
					"/>
				<path fill="#BCBCBC" d="M47.429,63.368c0.008-0.004,0.016-0.009,0.025-0.014l0.001-0.001c0.009-0.005,0.018-0.01,0.026-0.015
					c-0.008,0.004-0.016,0.009-0.024,0.013C47.448,63.357,47.439,63.362,47.429,63.368z"/>
				<path fill="#BCBCBC" d="M52.593,60.355c0.042-0.027,0.081-0.052,0.119-0.077c0.004-0.003,0.007-0.005,0.011-0.008
					c-0.038,0.025-0.078,0.05-0.12,0.077C52.6,60.351,52.597,60.353,52.593,60.355z"/>
				<rect x="53.202" y="59.888" fill="#BCBCBC" width="0.002" height="0.007"/>
				<path fill="#BCBCBC" d="M1.292,65.524c0.274,0.027,0.526,0.01,0.526,0.01l33.71-1.216l7.08-4.305
					c-13.456,0.908-35.811,2.603-35.811,2.603s-3.666,0.325-5.467,1.68c-0.47,0.354-0.668,0.608-0.703,0.79
					C0.571,65.385,0.947,65.49,1.292,65.524z"/>
				<path fill="#0071BC" d="M97.486,63.99c0.699,2.366-0.096,5.123-6.632,5.96c-3.029,0.388-5.499,0.207-7.542-0.275
					c-5.767-1.361-7.758-4.959-10.611-5.05c-0.058-0.002,0.18-0.008,0.121-0.007L61,63.809v-0.014l-0.292-0.015l-0.284-2.462
					c-0.095,0.006-0.229,0.011-0.248,0.012c-0.114,0.006-0.198-0.2-0.231-0.008c0,0.003-0.021-0.322-0.022-0.322h-0.174l0.004,0.448
					c0-0.009,0.728,1.296,0.731,1.741c0,0.024,0.509,0.232,0.51,0.252c0,0.007,0.02-0.023,0.02-0.016
					c0.001,0.02-0.458,0.018-0.457,0.03c-0.006,0.008-0.24,0.008-0.245,0.018c-0.029,0.06-0.123,1.099-0.12,1.195
					C60.198,64.847,60.163,66,60.163,66h-0.005l1.736-0.851l10.722,0.228c0.059-0.001,0.089-0.242,0.147-0.24
					c2.864,0.09,4.847,3.591,10.634,4.958c2.05,0.484,4.514,0.6,7.551,0.208c6.553-0.846,7.338-3.651,6.635-6.029
					c-0.043-0.145-0.097-0.302-0.15-0.444C97.453,63.888,97.469,63.931,97.486,63.99z"/>
				<path fill="#0071BC" d="M79.21,64.778c-0.197-3.026,2.042-3.494,5.229-3.7c1.037-0.067,2.28-0.139,3.549-0.114
					c0.768,0.015,1.546,0.065,2.297,0.173c1.869,0.268,3.591,0.899,4.603,2.271c0.252,0.341,0.447,0.665,0.592,0.973
					c0.048,0.102,0.088,0.201,0.125,0.299c-0.05-0.179-0.119-0.363-0.209-0.554c-0.144-0.306-0.339-0.628-0.59-0.968
					c-1.009-1.366-2.727-1.994-4.591-2.262c-1.984-0.285-4.172-0.167-5.833-0.061c-3.18,0.203-5.414,0.668-5.219,3.679
					c0.006,0.091,0.013,0.183,0.023,0.279c0.008,0.076,0.023,0.153,0.044,0.228C79.222,64.937,79.215,64.856,79.21,64.778z"/>
				<path fill="#29ABE2" d="M61,63.795v0.014l11.823,0.81c0.059-0.001-0.031,0.002,0.027,0.004
					c2.853,0.091,4.772,3.691,10.541,5.051c2.043,0.482,4.474,0.663,7.503,0.276c6.535-0.837,7.311-3.594,6.611-5.96
					c-0.017-0.059-0.047-0.117-0.067-0.176c-0.532-1.62-1.735-3.055-2.236-3.586c-0.781-0.827-1.509-0.981-2.123-0.985
					c-0.333-0.002-0.634,0.04-0.891,0.044c-0.359,0.006-0.799-0.1-1.279-0.213c-0.497-0.117-1.036-0.241-1.575-0.256
					c-0.898-0.025-1.352,0.308-1.472,0.413c-0.022,0.019-0.034,0.031-0.034,0.031l0.311-0.002L61,61.297v0.013l0.026,2.465
					L61,63.795z M79.163,64.512c-0.195-3.011,2.039-3.475,5.219-3.679c1.661-0.106,3.848-0.224,5.833,0.061
					c1.865,0.268,3.582,0.896,4.591,2.262c0.251,0.34,0.446,0.662,0.59,0.968c0.09,0.191,0.158,0.375,0.209,0.554
					c0.326,1.152-0.156,2.044-1.234,2.741c-0.781,0.505-1.872,0.906-3.193,1.228c-2.214,0.54-5.591,0.115-8.217-0.844
					c-1.943-0.71-3.441-1.701-3.732-2.785c-0.02-0.076-0.036-0.152-0.044-0.228C79.176,64.695,79.169,64.603,79.163,64.512z"/>
				<path fill="#2E3192" d="M50.421,55.258c-0.026,0.002-0.052,0.001-0.078-0.001c-0.119,0.005-0.229-0.045-0.415-0.064
					c0.008,0.056,0.106,0.128,0.265,0.208l0.009-0.005L50.421,55.258z"/>
				<path fill="#2E3192" d="M53.284,56.305L53.284,56.305c0.273,0.046,0.513,0.073,0.685,0.072
					c-0.057-0.041-0.276-0.115-0.511-0.198l-0.002,0.025L53.284,56.305z"/>
				<path fill="#999999" d="M53.29,56.101c-0.006-0.003-0.015-0.006-0.019-0.009l-2.237,1.24c0.027,0.024,0.09,0.08,0.181,0.151
					c0.02,0.015,0.086-0.129,0.109-0.111L53.368,56h-0.015l1.19,0.527l-0.011-0.167c0-0.009-0.555-0.109-0.578-0.119
					C53.907,56.232,53.324,56.15,53.29,56.101z"/>
				<path fill="#CCCCCC" d="M10.846,81.426c3.184,0.267,6.474-1.448,6.474-1.448s18.598-10.136,28.589-15.753
					c0.038-0.022,0.076-0.043,0.114-0.064c0,0,0,0,0.001,0c0.109-0.062,0.218-0.123,0.326-0.183
					c0.001-0.001,0.002-0.001,0.003-0.002c0.03-0.017,0.061-0.034,0.09-0.051c0.339-0.191,0.667-0.376,0.986-0.557
					c0.009-0.005,0.019-0.011,0.029-0.016c2.412-1.365,4.257-2.435,5.146-3.003c0.042-0.027,0.082-0.053,0.12-0.077
					c0.002-0.002,0.005-0.003,0.008-0.005c0.023-0.015,0.04-0.027,0.061-0.041c0.041-0.027,0.082-0.054,0.117-0.078
					c0.028-0.019,0.049-0.035,0.073-0.052c0.023-0.016,0.048-0.034,0.067-0.048c0.032-0.024,0.055-0.043,0.076-0.061
					c0.005-0.005,0.014-0.011,0.019-0.015c0.024-0.022,0.041-0.039,0.048-0.052c0.003-0.005,0.003-0.009,0.005-0.014
					c0.001-0.003,0.002-0.005,0.003-0.008c0.001-0.002,0.001-0.004,0.002-0.005c0.001-0.003,0.398,0.013,0.399,0.009
					C53.603,59.895,54,59.909,54,59.903c0-0.004,0-0.008,0-0.012c0-0.009-0.391-0.037-0.389-0.046
					c0.001-0.004-0.196-0.017-0.195-0.021c0.003-0.015-0.084,0.114-0.086,0.098C53.325,59.899,53.259,60,53.259,60h-0.01
					c0,0-0.045-0.338-0.096-0.441c-0.316-0.647-1.383-1.581-1.876-1.957c-0.021-0.016-0.042-0.068-0.061-0.083
					c-0.091-0.072-0.155-0.145-0.181-0.169c-0.009-0.008,0.357-0.022,0.357-0.022L54,56.051v0.001c0-0.179-1.882-0.481-2.493-0.7
					c-0.185-0.062-0.535-0.119-0.676-0.169c-0.085,0.049-0.249,0.069-0.318,0.073l-0.265,0.139l-0.032,0.005l-7.596,4.612
					l-7.085,4.305l-0.507,0.307L9.682,80.035c0,0-0.221,0.124-0.401,0.295c-0.004,0.004-0.008,0.008-0.012,0.012
					c-0.087,0.085-0.165,0.181-0.202,0.282C8.953,80.938,9.237,81.291,10.846,81.426z M45.883,60.847
					c0.955,0.025,1.677,0.445,1.615,0.941c-0.062,0.501-0.899,0.893-1.871,0.87c-0.976-0.023-1.704-0.453-1.624-0.957
					C44.082,61.202,44.925,60.821,45.883,60.847z"/>
				<path fill="#2E3192" d="M53.476,44.719c-1.511,2.146,1.891,4.109,1.957,5.315C56.726,49.012,52.568,47.003,53.476,44.719z"/>
				<path fill="#2E3192" d="M58.918,42.763c-0.113,0.023-0.221,0.052-0.328,0.084c2.816-0.582,5.988-0.851,9.408,0.718
					c1.396,0.641,1.791,1.301,1.646,1.93c0.422-0.71,0.2-1.481-1.48-2.25c-0.41-0.187-0.814-0.35-1.214-0.491
					C64.098,41.918,61.29,42.272,58.918,42.763z"/>
				<path fill="#0071BC" d="M58.401,47.753c0.137,0.039,0.27,0.077,0.402,0.113c-3.547-1.039-2.832-4.246-0.214-5.019
					c0.106-0.031,0.215-0.06,0.328-0.084c2.373-0.491,5.181-0.845,8.033-0.01c-2.945-1.038-5.726-0.878-8.436-0.103
					c-1.751,0.501-2.73,1.663-2.635,2.799C55.957,46.376,56.748,47.276,58.401,47.753z"/>
				<path fill="#0071BC" d="M50.822,55.202C50.824,55.2,51,55.217,51,55.216v-0.019c0,0.049,0.105,0.075,0.306,0.147
					C51.916,55.562,52.558,56,53.175,56h0.039c0.008,0,0.041,0.062,0.05,0.074c0.034,0.049,0.092,0.054,0.14,0.063
					c0.009,0.002,0.025,0.011,0.035,0.015c0.201,0.082,0.46,0.171,0.517,0.211c1.027-0.203,17.669-9.351,17.669-9.351
					s1,0.03,1.442-0.349c0.437-0.374,0.165-0.9,0.518-1.142c0.35-0.241,1.368-0.489-0.199-1.326
					c-0.699-0.373-2.725-1.352-5.304-2.046c2.388,0.683,4.243,1.582,4.905,1.935c1.014,0.541,0.943,0.836,0.671,1.042
					c-0.148,0.112-0.354,0.198-0.478,0.282c-0.174,0.119-0.197,0.305-0.228,0.509c-0.032,0.212-0.071,0.442-0.295,0.633
					c-0.444,0.377-1.444,0.35-1.444,0.35l-17.239,9.236l-3.718-1.271c-0.152,0.144-0.228,0.259-0.288,0.328
					c0.156,0.016,0.267,0.053,0.376,0.062c0.026,0.002,0.139,0.011,0.165,0.009C50.578,55.262,50.737,55.251,50.822,55.202z"/>
				<path fill="#29ABE2" d="M71.213,46.902c0,0,1,0.027,1.444-0.35c0.224-0.19,0.263-0.421,0.295-0.633
					c0.03-0.203,0.054-0.39,0.228-0.509c0.124-0.084,0.33-0.17,0.478-0.282c0.271-0.206,0.342-0.501-0.671-1.042
					c-0.662-0.353-2.517-1.252-4.905-1.935c-3.199-0.914-7.438-1.462-11.492,0.208c-1.903,0.784-2.803,1.583-3.113,2.361
					c-0.909,2.283,3.249,4.293,1.957,5.315c-0.026,0.021-0.055,0.041-0.086,0.062l-5.142,4.754l0.02,0.007l0.03,0.01l3.718,1.271
					L71.213,46.902z M55.879,45.449c-0.095-1.136,0.884-2.298,2.635-2.799c2.71-0.775,5.492-0.935,8.436,0.103
					c0.4,0.141,0.804,0.304,1.214,0.491c1.68,0.769,1.903,1.541,1.48,2.25c-0.457,0.768-1.671,1.466-2.629,1.994
					c-1.852,1.022-3.68,1.619-8.212,0.376c-0.132-0.036-0.266-0.074-0.402-0.113C56.748,47.276,55.957,46.376,55.879,45.449z"/>
				<path fill="#666666" d="M45.628,62.658c0.972,0.023,1.808-0.369,1.871-0.87c0.062-0.496-0.66-0.916-1.615-0.941
					c-0.958-0.025-1.801,0.355-1.88,0.854C43.924,62.205,44.652,62.636,45.628,62.658z M45.849,61.091
					c0.695,0.018,1.22,0.324,1.174,0.685c-0.013,0.099-0.069,0.19-0.155,0.273c-0.231,0.222-0.691,0.37-1.204,0.358
					c-0.514-0.012-0.931-0.182-1.1-0.414c-0.063-0.086-0.094-0.181-0.079-0.28C44.54,61.35,45.152,61.073,45.849,61.091z"/>
			</g>
			<path fill="#999999" d="M45.902,60.714c-0.957-0.026-1.798,0.354-1.877,0.852c-0.079,0.503,0.648,0.932,1.622,0.955
				c0.971,0.023,1.806-0.368,1.868-0.868C47.577,61.158,46.855,60.739,45.902,60.714z M45.683,62.27
				c-0.705-0.017-1.233-0.328-1.177-0.692c0.055-0.362,0.666-0.638,1.362-0.62c0.694,0.018,1.219,0.323,1.172,0.684
				C46.993,62.004,46.386,62.286,45.683,62.27z"/>
		</g>
		<g>
			<g id="shadow_9_" opacity="0.4" filter="url(#AI_GaussianBlur_7)">
				<polygon points="81.289,55.245 80.452,48.392 70.521,44.813 68.592,44.118 68.466,44.089 64.127,43.087 59.941,44.339 
					51.988,45.297 40.268,46.55 36.5,48.171 31.756,48.908 27.989,51.855 19.059,52.887 9.152,56.129 10.129,61.582 11.93,62.208 
					15.431,63.424 22.826,64.603 30.779,67.404 50.872,71.898 51.551,71.725 58.686,69.909 74.034,66.446 75.987,64.382 
					83.801,61.803 				"/>
			</g>
			<polygon fill="#B3B3B3" points="56.292,56.446 51.687,44.447 53.92,35.238 59.185,26.621 43.386,28.272 39.124,35.065 
				27.936,39.193 22.875,46.252 10.373,53.445 13.875,55.748 21.27,57.981 29.223,63.283 49.315,71.794 54.199,64.26 			"/>
			<polygon fill="#999999" points="59.185,26.621 59.185,26.621 53.92,35.238 51.687,44.447 56.292,56.446 60.69,55.417 
				70.868,53.445 72.903,42.245 66.909,26.559 68.965,20.508 67.035,19.192 66.909,19.136 61.594,22.68 			"/>
			<polygon fill="#CCCCCC" points="27.936,39.193 39.124,35.065 43.386,28.272 59.185,26.621 61.594,22.68 66.909,19.136 
				62.571,17.238 58.385,19.61 50.431,21.424 38.711,23.796 34.944,26.866 30.2,28.261 26.432,33.842 17.502,35.796 7.596,41.935 
				8.572,52.26 10.373,53.445 22.875,46.252 			"/>
			<polygon fill="#CCCCCC" points="61.594,22.68 59.185,26.621 59.185,26.621 			"/>
			<polygon fill="#808080" points="54.199,64.26 49.315,71.794 49.995,71.467 			"/>
			<polygon fill="#808080" points="72.903,42.245 70.868,53.445 60.69,55.417 56.292,56.446 54.199,64.26 49.995,71.467 
				57.129,68.027 72.477,61.469 74.431,57.562 82.244,52.679 79.733,40.261 78.896,27.284 68.965,20.508 66.909,26.559 			"/>
		</g>
	</g>
	<g id="Scissors_Cuts_Paper">
	</g>
	<g id="Paper_Over_Rock">
	</g>
</g>
<g id="Rock">
</g>
<g id="Paper">
</g>
<g id="Scissors">
</g>
<g id="Message">
</g>
<g id="New_Game" display="none">
	<g id="Arrow_26" display="inline">
	</g>
</g>
</svg>
