<?xml version="1.0" encoding="utf-8"?>
<!-- Generator: Adobe Illustrator 17.1.0, SVG Export Plug-In . SVG Version: 6.00 Build 0)  -->
<!DOCTYPE svg PUBLIC "-//W3C//DTD SVG 1.1//EN" "http://www.w3.org/Graphics/SVG/1.1/DTD/svg11.dtd">
<svg version="1.1" xmlns="http://www.w3.org/2000/svg" xmlns:xlink="http://www.w3.org/1999/xlink" x="0px" y="0px"
	 viewBox="0 0 250 250" enable-background="new 0 0 250 250" xml:space="preserve">
<filter  id="AI_GaussianBlur_4">
	<feGaussianBlur  stdDeviation="2"></feGaussianBlur>
</filter>
<g id="Layer_7">
</g>
<g id="Layer_4">
	<g id="SMS">
		<g id="Email">
		</g>
	</g>
</g>
<g id="Send_Code">
</g>
<g id="Record">
	<g id="Rock_crushes_Scissors">
	</g>
	<g id="Scissors_Cuts_Paper">
	</g>
	<g id="Paper_Over_Rock">
	</g>
</g>
<g id="Rock">
</g>
<g id="Paper">
	<g>
		<g>
			<path id="shadow_14_" filter="url(#AI_GaussianBlur_4)" d="M249.191,93.283c2.435-3.917-0.9-10.764-9.538-12.351
				c-5.151-0.893-27.867-6.826-50.09-12.763c0,0-46.714-8.11-57.038-20.316c-0.115,11.478-65.393,52.445-65.393,52.445
				S14.67,139.2,2.775,141.547c2.428,11.248,54.87,29.495,54.87,29.495s66.8,33.713,84.256,32.98
				c17.456-0.733,37.448-36.168,67.069-68.162c18.801-20.307,34.978-37.551,39.593-41.761c0.376-0.549,0.633-1.058,0.794-1.532
				c-0.024,0.207-0.083,0.449-0.176,0.727c-0.047,0.082-0.109,0.169-0.169,0.254c0.056-0.078,0.112-0.156,0.163-0.237
				c-0.022,0.065-0.038,0.123-0.064,0.192C249.138,93.43,249.165,93.357,249.191,93.283z M249.425,92.419
				c0.007,0.257-0.06,0.534-0.224,0.836C249.297,92.982,249.378,92.705,249.425,92.419z"/>
			<g>
				<linearGradient id="SVGID_1_" gradientUnits="userSpaceOnUse" x1="131.7619" y1="107.8761" x2="3.3865" y2="153.9473">
					<stop  offset="0" style="stop-color:#FFFFFF"/>
					<stop  offset="1" style="stop-color:#D8D8D8"/>
				</linearGradient>
				<path fill="url(#SVGID_1_)" d="M65.357,98.038c0,0-52.462,38.901-64.357,41.248c2.428,11.248,54.87,29.495,54.87,29.495
					l77.883-64.555L65.357,98.038z"/>
				<linearGradient id="SVGID_2_" gradientUnits="userSpaceOnUse" x1="128.8502" y1="111.0677" x2="134.9193" y2="201.8606">
					<stop  offset="0.0051" style="stop-color:#FFFFFF"/>
					<stop  offset="0.7245" style="stop-color:#FFFFFF"/>
					<stop  offset="0.9949" style="stop-color:#D8D8D8"/>
				</linearGradient>
				<path fill="url(#SVGID_2_)" d="M207.194,133.599l-73.441-29.374L55.87,168.781c0,0,66.8,33.714,84.256,32.98
					S177.574,165.594,207.194,133.599z"/>
			</g>
		</g>
		<linearGradient id="SVGID_3_" gradientUnits="userSpaceOnUse" x1="180.6322" y1="100.5838" x2="248.7397" y2="97.2318">
			<stop  offset="0" style="stop-color:#FFFFFF"/>
			<stop  offset="1" style="stop-color:#D8D8D8"/>
		</linearGradient>
		<path fill="url(#SVGID_3_)" d="M133.753,104.226l73.441,29.374c18.801-20.307,34.978-37.551,39.593-41.761
			c4.257-6.219-5.939-7.578-15.697-4.675c1.747-6.059,6.787-8.491,6.787-8.491c-5.151-0.893-27.867-6.826-50.09-12.763
			L133.753,104.226z"/>
		<g opacity="0.7" filter="url(#AI_GaussianBlur_4)">
			<path fill="#666666" d="M238.455,81.938c0,0-2.738,6.565-6.811,8.504c8.484,2.072,17.639-4.363,15.692,0.801
				C248.14,89.111,248.463,86.861,238.455,81.938z"/>
		</g>
		
			<linearGradient id="SVGID_4_" gradientUnits="userSpaceOnUse" x1="-62.132" y1="-184.1766" x2="-54.4605" y2="-197.464" gradientTransform="matrix(0.8663 0.5374 -0.5236 0.844 190.1681 279.0677)">
			<stop  offset="0" style="stop-color:#FFFFFF"/>
			<stop  offset="1" style="stop-color:#C4C4C4"/>
		</linearGradient>
		<path fill="url(#SVGID_4_)" d="M237.878,78.672c0,0-5.283,2.189-6.787,8.491c6.591-0.033,20.128,0.037,15.697,4.675
			C250.316,88.144,247.153,80.376,237.878,78.672z"/>
		<linearGradient id="SVGID_5_" gradientUnits="userSpaceOnUse" x1="71.0049" y1="86.1396" x2="213.9916" y2="59.9213">
			<stop  offset="0" style="stop-color:#FFFFFF"/>
			<stop  offset="1" style="stop-color:#D8D8D8"/>
		</linearGradient>
		<path fill="url(#SVGID_5_)" d="M133.753,104.226l54.034-38.317c0,0-46.714-8.11-57.038-20.316
			c-0.115,11.478-65.393,52.445-65.393,52.445L133.753,104.226z"/>
	</g>
</g>
<g id="Scissors">
</g>
<g id="Message" display="none">
</g>
<g id="New_Game" display="none">
	<g id="Arrow_26" display="inline">
	</g>
</g>
</svg>
