<?xml version="1.0" encoding="utf-8"?>
<!-- Generator: Adobe Illustrator 17.1.0, SVG Export Plug-In . SVG Version: 6.00 Build 0)  -->
<!DOCTYPE svg PUBLIC "-//W3C//DTD SVG 1.1//EN" "http://www.w3.org/Graphics/SVG/1.1/DTD/svg11.dtd">
<svg version="1.1" xmlns="http://www.w3.org/2000/svg" xmlns:xlink="http://www.w3.org/1999/xlink" x="0px" y="0px"
	 viewBox="0 0 250 250" enable-background="new 0 0 250 250" xml:space="preserve">
<filter  id="AI_GaussianBlur_7">
	<feGaussianBlur  stdDeviation="7"></feGaussianBlur>
</filter>
<g id="Layer_7">
</g>
<g id="Layer_4">
	<g id="SMS">
		<g id="Email">
		</g>
	</g>
</g>
<g id="Send_Code">
</g>
<g id="Record">
	<g id="Rock_crushes_Scissors">
	</g>
	<g id="Scissors_Cuts_Paper">
	</g>
	<g id="Paper_Over_Rock">
	</g>
</g>
<g id="Rock">
	<g>
		<g id="shadow_12_" opacity="0.4" filter="url(#AI_GaussianBlur_7)">
			<polygon points="225.877,145.48 223.506,126.071 195.381,115.936 189.917,113.967 189.559,113.884 177.272,111.045 
				165.416,114.593 142.892,117.306 109.698,120.854 99.028,125.445 85.592,127.532 74.923,135.88 49.632,138.802 21.575,147.984 
				24.341,163.427 29.441,165.199 39.357,168.645 60.301,171.984 82.826,179.914 139.73,192.645 141.655,192.155 161.86,187.01 
				205.329,177.201 210.861,171.358 232.99,164.054 			"/>
		</g>
		<polygon fill="#B3B3B3" points="155.08,148.881 142.04,114.897 148.362,88.816 163.276,64.412 118.53,69.088 106.46,88.326 
			74.774,100.019 60.44,120.011 25.033,140.382 34.949,146.905 55.893,153.228 78.417,168.245 135.322,192.35 149.153,171.011 		"/>
		<polygon fill="#999999" points="163.276,64.412 163.276,64.412 148.362,88.816 142.04,114.897 155.08,148.881 167.536,145.967 
			196.361,140.382 202.126,108.663 185.15,64.238 190.972,47.099 185.508,43.371 185.15,43.215 170.097,53.25 		"/>
		<polygon fill="#CCCCCC" points="74.774,100.019 106.46,88.326 118.53,69.088 163.276,64.412 170.097,53.25 185.15,43.215 
			172.863,37.839 161.008,44.557 138.483,49.694 105.289,56.412 94.619,65.105 81.184,69.057 70.514,84.864 45.223,90.396 
			17.166,107.784 19.932,137.026 25.033,140.382 60.44,120.011 		"/>
		<polygon fill="#CCCCCC" points="170.097,53.25 163.276,64.412 163.276,64.412 		"/>
		<polygon fill="#808080" points="149.153,171.011 135.322,192.35 137.246,191.422 		"/>
		<polygon fill="#808080" points="202.126,108.663 196.361,140.382 167.536,145.967 155.08,148.881 149.153,171.011 
			137.246,191.422 157.451,181.68 200.92,163.107 206.452,152.043 228.582,138.212 221.469,103.042 219.098,66.291 190.972,47.099 
			185.15,64.238 		"/>
	</g>
</g>
<g id="Paper">
</g>
<g id="Scissors">
</g>
<g id="Message" display="none">
</g>
<g id="New_Game" display="none">
	<g id="Arrow_26" display="inline">
	</g>
</g>
</svg>
