<?xml version="1.0" encoding="utf-8"?>
<!-- Generator: Adobe Illustrator 17.1.0, SVG Export Plug-In . SVG Version: 6.00 Build 0)  -->
<!DOCTYPE svg PUBLIC "-//W3C//DTD SVG 1.1//EN" "http://www.w3.org/Graphics/SVG/1.1/DTD/svg11.dtd">
<svg version="1.1" xmlns="http://www.w3.org/2000/svg" xmlns:xlink="http://www.w3.org/1999/xlink" x="0px" y="0px"
	 viewBox="0 0 250 250" enable-background="new 0 0 250 250" xml:space="preserve">
<filter  id="AI_GaussianBlur_4">
	<feGaussianBlur  stdDeviation="2"></feGaussianBlur>
</filter>
<g id="Layer_7">
</g>
<g id="Layer_4">
	<g id="SMS">
		<g id="Email">
		</g>
	</g>
</g>
<g id="Send_Code">
</g>
<g id="Record">
	<g id="Rock_crushes_Scissors">
	</g>
	<g id="Scissors_Cuts_Paper">
	</g>
	<g id="Paper_Over_Rock">
	</g>
</g>
<g id="Rock">
</g>
<g id="Paper">
</g>
<g id="Scissors">
	<g>
		<path id="shaodw_6_" filter="url(#AI_GaussianBlur_4)" d="M239.469,131.692c-1.548-4.429-3.634-5.155-5.524-5.065
			c-1.022,0.049-1.986,0.335-2.777,0.405c-1.106,0.098-2.351-0.412-3.711-0.952c-1.409-0.56-2.94-1.152-4.569-1.136
			c-2.705,0.027-4.353,1.946-4.799,2.541c-0.082,0.109-0.128,0.179-0.128,0.179l-0.122,0.023l-77.64,14.729l0.002,0.061
			c-0.246,0.041-0.409,0.068-0.46,0.076c-0.297,0.042-0.467,0.662-0.552,1.609c-0.001,0.013-0.003,0.025-0.004,0.038l-0.001,0
			c0.001-0.013,0.003-0.025,0.004-0.039c-2.542,0.314-8.574,1.45-8.574,1.45s-0.208-0.415-0.509-1.083
			c-1.092-2.427-3.931-8.236-6.635-10.033c-0.331-0.22-0.67-0.384-0.995-0.47c-0.146-0.039-0.48-0.043-0.918-0.015
			c-0.933-3.199-3.843-7.401-5.208-9.249c-0.059-0.08-0.105-0.156-0.158-0.231c-0.252-0.354-0.426-0.631-0.501-0.75
			c-0.025-0.04-0.038-0.065-0.038-0.065l5.623-7.071c0.022,0.11,0.046,0.187,0.071,0.251c-0.017-0.014-0.04-0.028-0.052-0.042
			l-5.598,6.928c0.075,0.119,0.253,0.396,0.505,0.75c0.056,0.076,0.108,0.145,0.172,0.231l4.995-6.777
			c0.731,0.193,1.374,0.291,1.829,0.253c-0.159-0.205-0.754-0.561-1.392-0.959c0-0.047-0.05-0.094-0.113-0.142
			c0.025,0.008,0.05,0.019,0.076,0.038c0.549,0.398,1.242,0.806,1.401,1.011c2.702-1.275,52.207-61.198,52.207-61.198
			s3.189-0.178,4.783-2.952c1.594-2.774,0.957-6.369,2.232-8.235c1.275-1.866,4.783-4.092,0-9.513
			c-2.15-2.437-8.49-8.813-16.844-12.819c-10.389-5.403-24.241-7.477-37.045,6.896c-5.748,6.452-8.314,12.426-9.062,17.894
			c-3.898,14.771,6.368,26.129,6.746,33.548c-0.072,0.135-0.149,0.268-0.235,0.399l-13.074,28.569l0.054,0.033l0.082,0.049
			c-0.362,0.811-0.53,1.448-0.67,1.831c0.415,0.055,0.719,0.231,1.009,0.26c-0.313,0.049-0.618-0.194-1.114-0.26
			c0.037,0.298,0.316,0.666,0.757,1.068l-17.601,24.705c-31.309,5.963-78.484,15.78-78.484,15.78s-7.174,1.701-9.306,7.452
			c-0.546,1.472-0.658,2.514-0.525,3.252c-0.301,2.214,0.865,2.834,1.799,2.982c0.573,0.091,1.056,0.007,1.056,0.007l69.835-7.542
			l-41.51,58.265c0,0-0.31,0.394-0.511,0.938c-0.005,0.012-0.008,0.025-0.012,0.038c-0.094,0.266-0.161,0.568-0.153,0.884
			c0-0.005-0.001-0.009-0.001-0.014c-0.01-0.321,0.058-0.614,0.154-0.883c-0.168,0.341-2.098,4.517,3.712,5.435
			c6.059,0.957,11.052-4.461,11.052-4.461s33.844-38.801,54.234-63.115l31.272-3.377l1.026-0.101l0.583-0.057v0l-0.583,0.058
			c0.042,0.848,0.117,1.431,0.243,1.535c0.037,0.031,0.198,0.066,0.464,0.103l0,0c0.752,0.105,2.355,0.231,4.453,0.366l27.675,2.275
			c0.156-0.01,0.31-0.013,0.463-0.009c7.584,0.154,11.441,16.583,25.951,22.305c5.134,2.024,11.599,2.711,20.039,0.858
			c18.801-4.129,23.774-17.223,24.148-28.927c0.023-0.729,0.023-1.45,0.013-2.167C242.587,141.996,240.451,134.502,239.469,131.692z
			 M134.812,33.011c8.919-5.525,19.216-9.026,30.041,1.045c4.359,4.055,5.415,8.639,4.731,13.163
			c-1.715,5.534-5.757,10.765-8.876,14.662c-5.887,7.355-11.474,11.775-24.948,5.294C125.155,61.642,126.778,39.642,134.812,33.011z
			 M230.128,168.337c-2.639,2.424-6.023,4.358-9.938,5.922c-6.459,2.58-15.316,0.854-21.821-3.333
			c-4.844-3.118-8.383-7.6-8.652-12.692c0.017-0.39,0.036-0.774,0.06-1.149c0.944-14.922,7.534-17.63,16.829-19.163
			c3.063-0.505,6.751-1.068,10.464-1.13c1.831,0.03,3.652,0.196,5.39,0.568c5.34,1.144,9.904,4.221,11.596,11.204
			c0.415,1.712,0.677,3.33,0.806,4.865C235.389,159.724,233.585,164.569,230.128,168.337z"/>
		<g>
			<path fill="none" d="M123.101,132.553c0-0.001,0-0.003,0.001-0.004c0.002-0.01,0.001-0.021,0.002-0.031
				c-0.002,0.016-0.004,0.032-0.006,0.048C123.099,132.562,123.1,132.558,123.101,132.553z"/>
			<path fill="none" d="M109.651,149.74c0.018-0.021,0.036-0.041,0.053-0.062c0.002-0.002,0.003-0.004,0.005-0.006
				c5.455-6.529,9.761-11.811,11.9-14.699c0.008-0.01,0.014-0.02,0.022-0.03c0.009-0.012,0.017-0.024,0.026-0.036
				C119.528,137.791,115.174,143.131,109.651,149.74z"/>
			<path fill="none" d="M123.154,131.68c0.001-0.017,0.001-0.032,0.001-0.049c-0.001-0.005-0.001-0.01-0.002-0.015
				C123.155,131.638,123.153,131.658,123.154,131.68z"/>
			<path fill="none" d="M123.09,132.634c0.002-0.016,0.005-0.032,0.007-0.048c-0.001,0.003-0.001,0.006-0.002,0.008
				C123.093,132.607,123.091,132.62,123.09,132.634z"/>
			<path fill="none" d="M141.008,148.19c-0.002,0.109,0.002,0.202,0.003,0.305c-0.001-0.093-0.001-0.189-0.002-0.305
				c-0.006-2.117,0.046-7.91-0.495-7.842C141.054,140.284,141.002,146.074,141.008,148.19z"/>
			<path fill="none" d="M123.269,133.077c-0.01,0.523-0.069,1.047-0.188,1.542C123.204,134.106,123.262,133.591,123.269,133.077z"/>
			<path fill="none" d="M140.968,148.833L139.274,149l-30.087,3.248c-0.001,0.001-0.001,0.001-0.002,0.002L139.283,149l1.689-0.167
				l0.043-0.004c-0.002-0.057-0.003-0.139-0.004-0.231c0.001,0.076-0.001,0.161,0.002,0.231L140.968,148.833z"/>
			<path fill="none" d="M122.738,133.361c-0.046,0.073-0.109,0.164-0.163,0.247C122.629,133.526,122.692,133.434,122.738,133.361z"
				/>
			<path fill="none" d="M122.967,132.969c-0.011,0.022-0.033,0.054-0.046,0.078C122.935,133.024,122.956,132.991,122.967,132.969z"
				/>
			<path fill="none" d="M236.137,149.602c-0.128-1.535-0.391-3.152-0.806-4.865c-1.692-6.983-6.255-10.06-11.596-11.204
				c-1.738-0.372-3.559-0.538-5.39-0.568c-3.714,0.062-7.402,0.625-10.464,1.13c-9.295,1.533-15.885,4.241-16.829,19.163
				c-0.024,0.375-0.043,0.759-0.06,1.149c0.27,5.093,3.809,9.575,8.652,12.692c6.505,4.187,15.361,5.912,21.821,3.333
				c3.915-1.564,7.299-3.498,9.938-5.922C234.861,160.743,236.664,155.898,236.137,149.602z"/>
			<path fill="none" d="M106.461,153.546c0.238-0.283,0.475-0.565,0.711-0.845c0.002-0.003,0.004-0.006,0.005-0.008
				c-0.238,0.283-0.478,0.569-0.719,0.855C106.459,153.547,106.46,153.547,106.461,153.546z"/>
			<path fill="none" d="M53.777,214.853c0,0-4.994,5.418-11.052,4.461c-3.046-0.481-3.835-1.61-3.866-2.612
				c0.026,1.003,0.808,2.135,3.866,2.618c6.059,0.957,11.052-4.464,11.052-4.464s31.913-36.627,52.431-61.009
				c0.085-0.101,0.168-0.199,0.252-0.3c-0.001,0.001-0.002,0.001-0.003,0.002c-0.084,0.1-0.166,0.198-0.251,0.298
				C85.688,178.229,53.777,214.853,53.777,214.853z"/>
			<path fill="none" d="M122.397,133.875c-0.084,0.122-0.185,0.263-0.283,0.401C122.212,134.139,122.313,133.997,122.397,133.875z"
				/>
			<path fill="none" d="M107.385,152.445c-0.066,0.079-0.134,0.159-0.2,0.238c-0.002,0.003-0.004,0.006-0.005,0.008
				c0.069-0.082,0.139-0.165,0.207-0.247c0.771-0.919,1.523-1.816,2.256-2.693c-0.018,0.021-0.037,0.043-0.055,0.064
				C108.871,150.673,108.138,151.549,107.385,152.445z"/>
			<path fill="none" d="M115.428,108.651c-0.005,0.007-0.009,0.01-0.015,0.017c0.386,0.239,0.843,0.513,1.349,0.811
				c-0.552-0.348-1.017-0.667-1.334-0.932V108.651z"/>
			<path fill="none" d="M105.011,144.828c1.076,0,2.056-0.401,2.807-1.058c0.184-0.396,0.294-0.833,0.294-1.299
				c0-1.712-1.388-3.101-3.101-3.101c-1.712,0-3.101,1.388-3.101,3.101c0,0.466,0.11,0.903,0.294,1.299
				C102.955,144.427,103.935,144.828,105.011,144.828z"/>
			<path fill="none" d="M166.128,30.229c-10.825-10.07-21.122-6.569-30.041-1.045c-8.034,6.632-9.657,28.631,0.948,34.163
				c13.474,6.482,19.061,2.061,24.948-5.294c3.119-3.897,7.161-9.128,8.876-14.662C171.544,38.868,170.487,34.284,166.128,30.229z"
				/>
			<path fill="#2E3192" d="M140.976,148.96c0.012-0.047,0.025-0.092,0.04-0.131l-0.043,0.004
				C140.974,148.877,140.975,148.917,140.976,148.96z"/>
			<path fill="#2E3192" d="M236.607,144.737c-1.692-6.983-6.255-10.06-11.596-11.204c-2.142-0.459-4.408-0.606-6.666-0.568
				c1.831,0.03,3.652,0.196,5.39,0.568c5.34,1.144,9.904,4.221,11.596,11.204c0.415,1.712,0.677,3.33,0.806,4.865
				c0.527,6.296-1.277,11.141-4.734,14.909c3.701-3.399,5.929-7.763,6.086-13.423c-0.013-0.487-0.035-0.98-0.077-1.486
				C237.284,148.067,237.022,146.449,236.607,144.737z"/>
			<path fill="#2E3192" d="M145.469,152.178l-4.453-0.366C141.768,151.917,143.372,152.043,145.469,152.178z"/>
			<path fill="#2E3192" d="M140.309,150.174c0.042,0.848,0.117,1.431,0.243,1.535c0.037,0.031,0.198,0.066,0.464,0.103
				c0,0-0.108-0.865-0.124-1.696L140.309,150.174z"/>
			<path fill="#2E3192" d="M219.365,123.658c-0.087,0.067-0.171,0.134-0.25,0.202l0.122-0.023
				C219.237,123.836,219.283,123.767,219.365,123.658z"/>
			<path fill="#999999" d="M11.21,162.832c0,0-0.483,0.084-1.056-0.007c-0.722-0.114-1.583-0.51-1.799-1.707
				c-0.301,2.214,0.865,2.834,1.799,2.982c0.573,0.091,1.056,0.007,1.056,0.007l69.835-7.542l0.984-1.382L11.21,162.832z"/>
			<path fill="#999999" d="M140.976,148.96c-0.001-0.043-0.002-0.083-0.003-0.126L139.283,149l-30.098,3.251
				c0.001-0.001,0.001-0.001,0.002-0.002c7.982-9.543,13.64-16.577,13.894-17.63c0.119-0.495,0.178-1.019,0.188-1.542
				c0.01-0.535-0.031-1.068-0.116-1.569c0.003,0.039,0.003,0.082,0.002,0.124c0,0.017,0,0.057-0.001,0.074
				c-0.006,0.142-0.027,0.295-0.034,0.295h-0.011c0.01,0,0.019,0.135,0.014,0.212c-0.001,0.02-0.001,0.027-0.002,0.046
				c0.005,0.001,0.009-0.004,0.009-0.003c-0.004,0.046-0.01,0.086-0.014,0.13c-0.001,0.019-0.001,0.038-0.002,0.057
				c-0.001,0.027-0.057,0.051-0.06,0.077c-0.001,0.01-0.053,0.02-0.053,0.03c0,0.001,0,0.003,0,0.004
				c0,0.011,0.047,0.021,0.046,0.032c-0.002,0.016,0.02,0.032,0.018,0.048c-0.002,0.024,0.009,0.048,0.003,0.07
				c-0.017,0.065-0.049,0.155-0.107,0.265c-0.011,0.022-0.029,0.055-0.042,0.078c-0.052,0.094-0.106,0.193-0.182,0.314
				c-0.046,0.073-0.108,0.165-0.162,0.247c-0.058,0.088-0.109,0.168-0.177,0.267c-0.084,0.122-0.185,0.264-0.283,0.401
				c-0.051,0.072-0.093,0.133-0.148,0.21c-0.006,0.008-0.013,0.017-0.019,0.025c-0.01,0.014-0.017,0.025-0.028,0.039
				c-0.091,0.125-0.187,0.257-0.287,0.392c-0.008,0.01-0.014,0.02-0.022,0.03c-2.139,2.888-6.445,8.17-11.9,14.699
				c-0.002,0.002-0.003,0.004-0.005,0.006c-0.02,0.024-0.04,0.047-0.059,0.071c-0.001,0.001-0.002,0.002-0.003,0.003
				c-0.733,0.877-1.485,1.774-2.256,2.693c-0.068,0.081-0.139,0.165-0.207,0.247c0.002-0.003,0.004-0.006,0.005-0.008
				c-0.003,0.003-0.005,0.006-0.008,0.009c-0.002,0.003-0.004,0.006-0.005,0.008c-0.235,0.28-0.472,0.562-0.711,0.845
				c-0.001,0.001-0.002,0.001-0.003,0.002c0,0-0.001,0.001-0.002,0.002c0.001-0.001,0.002-0.001,0.003-0.002
				c-0.085,0.101-0.167,0.199-0.252,0.3c-20.518,24.381-52.431,61.009-52.431,61.009s-4.994,5.421-11.052,4.464
				c-3.058-0.483-3.84-1.615-3.866-2.618c-0.01-0.321,0.058-0.627,0.154-0.897c-0.168,0.341-2.098,4.511,3.712,5.428
				c6.059,0.957,11.052-4.464,11.052-4.464s33.844-38.802,54.234-63.117l31.272-3.377l1.026-0.101l0.583-0.058
				C140.884,149.676,140.902,149.246,140.976,148.96z"/>
			<path fill="#BCBCBC" d="M102.204,143.771c0.492,1.061,1.56,1.802,2.807,1.802c1.247,0,2.315-0.74,2.807-1.802
				c-0.751,0.657-1.731,1.058-2.807,1.058C103.935,144.828,102.955,144.427,102.204,143.771z"/>
			<path fill="#BCBCBC" d="M123.13,132.249c0-0.001-0.005-0.002-0.009-0.003c-0.002,0.046-0.004,0.092-0.005,0.137
				C123.121,132.338,123.127,132.295,123.13,132.249z"/>
			<path fill="#BCBCBC" d="M123,131.642c0,0.114,0.096,0.358,0.109,0.358h0.011c0.007,0,0.028-0.153,0.034-0.295
				c-0.001-0.022,0.001-0.054-0.001-0.077c0.001,0.005,0.001,0.004,0.002,0.009c0.001-0.042,0.001-0.087-0.002-0.127
				c0.084,0.501,0.126,1.033,0.116,1.567c-0.007,0.514-0.065,1.028-0.188,1.541c-0.254,1.053-5.912,8.086-13.894,17.629L139.274,149
				l1.694-0.167l0.04-0.004c-0.003-0.07-0.008-0.155-0.008-0.231c0-0.032,0-0.068,0-0.103c0-0.102,0.001-0.196,0.002-0.305
				c-0.006-2.116,0.049-7.906-0.491-7.842c-0.017,0.002-0.034,0.01-0.053,0.025l0.001,0c0,0,0,0,0,0
				c0.001-0.013,0.003-0.025,0.004-0.039c-2.542,0.314-8.573,1.45-8.573,1.45s-0.208-0.415-0.509-1.083
				c-1.092-2.427-3.931-8.236-6.635-10.033c-0.331-0.22-0.67-0.384-0.995-0.47c-0.146-0.039-0.521-0.043-0.958-0.015
				c0.148,0.506,0.207,1.003,0.207,1.445C123,131.628,123,131.641,123,131.642z"/>
			<path fill="#BCBCBC" d="M109.587,149.816c0.018-0.021,0.037-0.043,0.055-0.064c0.001-0.001,0.002-0.002,0.003-0.003
				c0.02-0.024,0.04-0.047,0.059-0.071c-0.018,0.021-0.036,0.041-0.053,0.062C109.63,149.765,109.609,149.791,109.587,149.816z"/>
			<path fill="#BCBCBC" d="M121.632,134.943c0.1-0.136,0.197-0.267,0.287-0.392c0.01-0.014,0.017-0.025,0.028-0.039
				c-0.092,0.126-0.187,0.258-0.289,0.395C121.649,134.919,121.641,134.931,121.632,134.943z"/>
			<path fill="#BCBCBC" d="M123.095,132.594c0.001-0.003,0.001-0.006,0.002-0.008c0.001-0.011,0.003-0.022,0.005-0.032
				c-0.001,0.004-0.002,0.009-0.003,0.013C123.097,132.576,123.096,132.585,123.095,132.594z"/>
			<path fill="#BCBCBC" d="M10.155,162.825c0.573,0.091,1.056,0.007,1.056,0.007l70.82-7.649l14.64-20.549
				c-31.309,5.963-78.484,15.78-78.484,15.78s-7.174,1.701-9.306,7.452c-0.546,1.473-0.658,2.514-0.525,3.252
				C8.571,162.315,9.433,162.711,10.155,162.825z"/>
			<path fill="#0071BC" d="M243.745,147.405c-0.374,11.704-5.347,24.798-24.148,28.927c-8.44,1.854-14.905,1.167-20.039-0.858
				c-14.511-5.722-18.367-22.151-25.951-22.305c-0.153-0.003-0.307-0.001-0.463,0.009l-31.311-2.585l-0.002-0.063l-0.003-0.095
				l-0.351-11.784c-0.246,0.041-0.409,0.068-0.46,0.076c-0.297,0.042-0.467,0.662-0.552,1.609c-0.001,0.013-0.003,0.025-0.004,0.038
				l0,0c0.019-0.015,0.037-0.023,0.054-0.025c0.54-0.068,0.484,5.725,0.489,7.842c0,0.116-0.004,0.212-0.004,0.305
				c0,0.035,0,0.071,0,0.103c0,0.092,0.008,0.174,0.01,0.231c-0.015,0.039-0.025,0.084-0.037,0.131
				c-0.074,0.287-0.09,0.716-0.082,1.157c0.016,0.83,0.124,1.696,0.124,1.696l0.001,0l4.453,0.366l27.675,2.275
				c0.156-0.01,0.31-0.013,0.463-0.009c7.584,0.154,11.441,16.583,25.951,22.305c5.134,2.024,11.599,2.711,20.039,0.858
				c18.801-4.129,23.774-17.223,24.148-28.927c0.023-0.729,0.023-1.45,0.013-2.167C243.754,146.811,243.755,147.106,243.745,147.405
				z"/>
			<path fill="#0071BC" d="M191.053,153.258c0.944-14.922,7.534-17.63,16.829-19.163c3.063-0.505,6.751-1.068,10.464-1.13
				c2.257-0.038,4.524,0.109,6.666,0.568c5.34,1.144,9.904,4.221,11.596,11.204c0.415,1.712,0.677,3.33,0.806,4.865
				c0.042,0.506,0.064,0.999,0.077,1.486c0.025-0.889,0.003-1.807-0.077-2.761c-0.128-1.535-0.391-3.152-0.806-4.865
				c-1.692-6.983-6.255-10.06-11.596-11.204c-5.665-1.213-12.206-0.25-17.13,0.562c-9.295,1.533-15.885,4.241-16.829,19.163
				c-0.028,0.436-0.052,0.879-0.07,1.337c-0.014,0.366-0.009,0.728,0.01,1.088C191.01,154.018,191.029,153.633,191.053,153.258z"/>
			<path fill="#29ABE2" d="M141.83,150.53l0.002,0.063l31.311,2.585c0.156-0.01,0.31-0.013,0.463-0.009
				c7.584,0.154,11.441,16.583,25.951,22.305c5.134,2.024,11.599,2.711,20.039,0.858c18.801-4.129,23.774-17.223,24.148-28.927
				c0.01-0.299,0.009-0.594,0.013-0.891c0.104-8.344-2.031-15.838-3.013-18.648c-1.548-4.429-3.634-5.155-5.524-5.065
				c-1.022,0.049-1.986,0.335-2.777,0.405c-1.106,0.098-2.351-0.412-3.711-0.952c-1.409-0.56-2.94-1.152-4.569-1.136
				c-2.705,0.027-4.353,1.946-4.799,2.541c-0.082,0.109-0.128,0.179-0.128,0.179l-0.122,0.023l-77.64,14.729l0.002,0.061
				l0.351,11.784L141.83,150.53z M191.053,151.983c0.944-14.922,7.534-17.63,16.829-19.163c4.925-0.812,11.465-1.776,17.13-0.562
				c5.34,1.144,9.904,4.221,11.596,11.204c0.415,1.712,0.677,3.33,0.806,4.865c0.08,0.954,0.102,1.872,0.077,2.761
				c-0.157,5.661-2.386,10.025-6.086,13.423c-2.639,2.424-6.023,4.358-9.938,5.922c-6.459,2.58-15.316,0.854-21.821-3.333
				c-4.844-3.118-8.383-7.6-8.652-12.692c-0.019-0.36-0.024-0.722-0.01-1.088C191.001,152.862,191.025,152.419,191.053,151.983z"/>
			<path fill="#2E3192" d="M114.834,109.109c-0.068,0.014-0.137,0.018-0.206,0.011c-0.313,0.049-0.618-0.194-1.114-0.26
				c0.037,0.298,0.316,0.666,0.757,1.068l0.022-0.031L114.834,109.109z"/>
			<path fill="#2E3192" d="M122.643,114.157L122.643,114.157c0.731,0.193,1.373,0.292,1.829,0.254
				c-0.159-0.205-0.754-0.561-1.392-0.959v0.132L122.643,114.157z"/>
			<path fill="#999999" d="M122.621,113.068c-0.017-0.014-0.04-0.028-0.052-0.042l-5.598,6.928c0.075,0.119,0.253,0.396,0.505,0.75
				c0.056,0.076,0.108,0.066,0.172,0.152l4.995-6.856h-0.04l0.397-0.416v-0.132c0-0.047-0.01-0.094-0.073-0.142
				C122.798,113.27,122.72,113.324,122.621,113.068z"/>
			<path fill="#CCCCCC" d="M42.724,219.314c6.059,0.957,11.052-4.461,11.052-4.461s31.911-36.624,52.429-61.005
				c0.085-0.101,0.167-0.198,0.251-0.298c0.001-0.001,0.001-0.001,0.001-0.001c0.242-0.287,0.482-0.573,0.72-0.856
				c0.003-0.003,0.005-0.006,0.008-0.009c0.066-0.079,0.134-0.159,0.2-0.238c0.753-0.896,1.486-1.772,2.202-2.629
				c0.021-0.025,0.043-0.051,0.064-0.077c5.523-6.609,9.876-11.949,12.006-14.833c0.102-0.138,0.198-0.269,0.289-0.395
				c0.006-0.008,0.013-0.017,0.019-0.025c0.055-0.076,0.097-0.138,0.148-0.21c0.098-0.138,0.2-0.279,0.283-0.401
				c0.068-0.099,0.119-0.179,0.177-0.267c0.055-0.083,0.117-0.174,0.163-0.247c0.076-0.121,0.132-0.22,0.184-0.314
				c0.013-0.024,0.034-0.056,0.046-0.078c0.058-0.111,0.097-0.2,0.113-0.265c0.006-0.023,0.007-0.047,0.009-0.07
				c0.001-0.013,0.003-0.026,0.005-0.039c0.001-0.009,0.003-0.018,0.004-0.027c0.002-0.016,0.003-0.032,0.006-0.048
				c0.004-0.026,0.008-0.051,0.009-0.078c0.001-0.019,0.002-0.039,0.002-0.058c0.001-0.045,0.003-0.09,0.005-0.137
				c0.001-0.02,0.001-0.039,0.002-0.059c0.005-0.077-0.005-0.157-0.014-0.237c-0.013-0.109-0.028-0.219-0.028-0.333
				c0,0,0-0.001,0-0.001c0-0.443-0.099-0.926-0.247-1.433c-0.933-3.199-3.843-7.401-5.208-9.249
				c-0.059-0.08-0.105-0.156-0.158-0.231c-0.252-0.354-0.426-0.631-0.501-0.75c-0.025-0.04-0.038-0.065-0.038-0.065l5.623-7.071
				c0,0,0,0,0,0c-1.643-0.958-4.118-2.286-5.788-3.339c-0.506-0.298-0.962-0.572-1.349-0.811c-0.212,0.283-0.398,0.404-0.579,0.442
				l-0.541,0.789l-0.022,0.031L96.67,134.634l-14.64,20.549l-0.984,1.382l-41.51,58.265c0,0-0.31,0.394-0.511,0.938
				c-0.005,0.012-0.008,0.025-0.012,0.038c-0.096,0.269-0.164,0.576-0.154,0.897C38.89,217.705,39.679,218.833,42.724,219.314z
				 M105.011,138.202c2.358,0,4.27,1.912,4.27,4.27c0,2.358-1.912,4.27-4.27,4.27c-2.358,0-4.27-1.912-4.27-4.27
				C100.741,140.114,102.653,138.202,105.011,138.202z"/>
			<path fill="#2E3192" d="M120.715,44.432c-3.898,14.771,6.368,26.129,6.746,33.548C131.039,71.291,118.601,59.886,120.715,44.432z
				"/>
			<path fill="#2E3192" d="M137.111,28.434c-0.353,0.219-0.692,0.476-1.024,0.75c8.919-5.525,19.216-9.026,30.041,1.045
				c4.359,4.055,5.415,8.639,4.731,13.163c1.617-5.216,1.168-10.702-4.093-15.596c-1.29-1.2-2.572-2.221-3.848-3.084
				C153.749,19.802,144.637,23.765,137.111,28.434z"/>
			<path fill="#0071BC" d="M135.835,62.754c0.407,0.208,0.806,0.404,1.2,0.594c-10.605-5.532-8.982-27.532-0.948-34.163
				c0.332-0.274,0.671-0.531,1.024-0.75c7.526-4.669,16.638-8.632,25.808-3.722c-9.443-6.392-18.481-3.862-27.083,3.084
				c-5.411,4.37-8.242,12.937-7.776,20.659C128.432,54.611,130.898,60.23,135.835,62.754z"/>
			<path fill="#0071BC" d="M115.199,108.668c0.005-0.007-0.199-0.01-0.199-0.017v-0.104c1,0.265,0.995,0.675,1.548,1.023
				c1.67,1.053,4.252,2.43,5.895,3.43h0.054c0.022,0,0.073,0.095,0.097,0.159c0.099,0.256,0.231,0.156,0.36,0.197
				c0.025,0.008,0.057-0.004,0.083,0.015c0.549,0.398,1.245,0.795,1.404,1c2.702-1.275,52.208-61.203,52.208-61.203
				s3.19-0.181,4.784-2.955c1.594-2.774,0.957-6.37,2.233-8.237c1.275-1.866,4.783-4.093,0-9.514
				c-2.15-2.437-8.49-8.813-16.844-12.819c7.721,4.016,13.53,9.87,15.569,12.181c3.104,3.518,2.716,5.692,1.712,7.296
				c-0.543,0.867-1.264,1.568-1.712,2.223c-0.626,0.917-0.791,2.252-0.986,3.702c-0.202,1.503-0.435,3.128-1.246,4.54
				c-1.594,2.774-4.783,2.965-4.783,2.965l-50.931,60.586l-10.156-6.107c-0.362,0.811-0.53,1.448-0.67,1.831
				c0.415,0.055,0.719,0.231,1.009,0.26c0.069,0.007,0.031,0.003,0.099-0.011C114.909,109.072,114.987,108.95,115.199,108.668z"/>
			<path fill="#29ABE2" d="M175.376,52.55c0,0,3.189-0.191,4.783-2.965c0.811-1.412,1.045-3.037,1.246-4.54
				c0.194-1.45,0.36-2.785,0.986-3.702c0.448-0.655,1.17-1.356,1.712-2.223c1.003-1.604,1.392-3.778-1.712-7.296
				c-2.039-2.311-7.848-8.165-15.569-12.181c-10.389-5.403-24.241-7.477-37.045,6.896c-5.748,6.452-8.314,12.426-9.062,17.894
				c-2.114,15.454,10.324,26.86,6.746,33.548c-0.072,0.135-0.149,0.268-0.235,0.399l-13.074,28.569l0.054,0.033l0.082,0.049
				l10.156,6.107L175.376,52.55z M128.06,48.455c-0.467-7.722,2.364-16.289,7.776-20.659c8.602-6.946,17.64-9.476,27.083-3.084
				c1.275,0.863,2.558,1.884,3.848,3.084c5.261,4.894,5.71,10.379,4.093,15.596c-1.715,5.534-5.757,10.765-8.876,14.662
				c-5.887,7.355-11.474,11.775-24.948,5.294c-0.394-0.189-0.792-0.385-1.2-0.594C130.898,60.23,128.432,54.611,128.06,48.455z"/>
			<path fill="#666666" d="M105.011,146.742c2.358,0,4.27-1.912,4.27-4.27c0-2.358-1.912-4.27-4.27-4.27
				c-2.358,0-4.27,1.912-4.27,4.27C100.741,144.83,102.653,146.742,105.011,146.742z M105.011,139.371
				c1.712,0,3.101,1.388,3.101,3.101c0,0.465-0.11,0.903-0.294,1.299c-0.492,1.061-1.56,1.802-2.807,1.802
				c-1.247,0-2.315-0.74-2.807-1.802c-0.184-0.396-0.294-0.833-0.294-1.299C101.91,140.759,103.299,139.371,105.011,139.371z"/>
		</g>
		<path fill="#999999" d="M105.011,137.564c-2.358,0-4.27,1.912-4.27,4.27c0,2.358,1.912,4.27,4.27,4.27
			c2.358,0,4.27-1.912,4.27-4.27C109.281,139.476,107.369,137.564,105.011,137.564z M105.011,144.935
			c-1.712,0-3.101-1.388-3.101-3.101c0-1.712,1.388-3.101,3.101-3.101c1.712,0,3.101,1.388,3.101,3.101
			C108.112,143.547,106.724,144.935,105.011,144.935z"/>
	</g>
</g>
<g id="Message" display="none">
</g>
<g id="New_Game" display="none">
	<g id="Arrow_26" display="inline">
	</g>
</g>
</svg>
